<svg width="20" height="25" viewBox="0 0 20 25" fill="none" xmlns="http://www.w3.org/2000/svg">
<path d="M5.07853 23.5508C4.60534 23.236 4.18597 22.847 3.83653 22.3988C3.45214 21.9361 3.09599 21.4508 2.77003 20.9453C2.00509 19.8246 1.4052 18.5999 0.988777 17.3085C0.488527 15.8085 0.246277 14.3708 0.246277 12.9645C0.246277 11.394 0.586027 10.023 1.25053 8.87102C1.74311 7.9706 2.46734 7.21815 3.34828 6.69152C4.20201 6.16125 5.18296 5.87106 6.18778 5.85152C6.53953 5.85152 6.91828 5.90252 7.32028 6.00002C7.60903 6.08177 7.96078 6.21077 8.39053 6.37127C8.93728 6.58202 9.23803 6.71102 9.34003 6.74252C9.66028 6.85952 9.92953 6.91052 10.141 6.91052C10.3015 6.91052 10.528 6.85952 10.7853 6.78152C10.93 6.73052 11.203 6.64052 11.5938 6.47327C11.9808 6.33227 12.2853 6.21152 12.5275 6.12152C12.8988 6.01202 13.258 5.91077 13.5783 5.85977C13.9579 5.79991 14.3432 5.78406 14.7265 5.81252C15.3907 5.85593 16.045 5.99668 16.6683 6.23027C17.6875 6.64052 18.5118 7.28102 19.1253 8.19152C18.866 8.35134 18.6226 8.53569 18.3985 8.74202C17.9107 9.17445 17.4952 9.68211 17.1678 10.2458C16.7398 11.0161 16.5178 11.8838 16.5235 12.765C16.5393 13.8473 16.8168 14.8005 17.3635 15.6248C17.7655 16.2356 18.2879 16.7581 18.8988 17.16C19.2115 17.3708 19.4808 17.5155 19.7388 17.613C19.618 17.988 19.489 18.351 19.3368 18.711C18.9915 19.5183 18.573 20.2923 18.0865 21.0233C17.653 21.6525 17.3133 22.1213 17.0553 22.4333C16.6533 22.9095 16.2663 23.2733 15.8755 23.5268C15.4458 23.8118 14.938 23.964 14.422 23.964C14.0726 23.9774 13.7232 23.9352 13.387 23.8388C13.0983 23.7413 12.8125 23.6355 12.5313 23.5148C12.2389 23.3805 11.9374 23.2669 11.629 23.175C10.8668 22.9792 10.0676 22.978 9.30478 23.1713C8.99203 23.2613 8.69128 23.3663 8.39428 23.4953C7.97653 23.6708 7.69903 23.7885 7.53853 23.8388C7.21828 23.9325 6.88603 23.991 6.55003 24.0105C6.03028 24.0105 5.54578 23.862 5.06578 23.5613L5.07853 23.5508ZM11.9335 5.08952C11.254 5.42927 10.6053 5.57402 9.96103 5.52677C9.85978 4.87802 9.96103 4.21427 10.2303 3.48752C10.4595 2.87182 10.7982 2.30266 11.23 1.80752C11.686 1.28628 12.2394 0.85905 12.859 0.549768C13.519 0.210018 14.1483 0.0262676 14.7498 -0.000732422C14.8278 0.678768 14.7498 1.34702 14.5 2.06927C14.2689 2.70773 13.9308 3.30221 13.5003 3.82727C13.0608 4.34922 12.5215 4.77811 11.914 5.08877L11.9335 5.08952Z" fill="black"/>
</svg>
