<svg width="24" height="24" viewBox="0 0 24 24" fill="none" xmlns="http://www.w3.org/2000/svg">
<path fill-rule="evenodd" clip-rule="evenodd" d="M11.9994 1.49933C11.8004 1.49933 11.6097 1.57835 11.469 1.719C11.3284 1.85965 11.2494 2.05042 11.2494 2.24933V19.9388L6.53036 15.2183C6.46063 15.1486 6.37785 15.0933 6.28674 15.0555C6.19563 15.0178 6.09798 14.9984 5.99936 14.9984C5.90074 14.9984 5.80309 15.0178 5.71199 15.0555C5.62088 15.0933 5.53809 15.1486 5.46836 15.2183C5.39863 15.2881 5.34331 15.3708 5.30558 15.462C5.26784 15.5531 5.24841 15.6507 5.24841 15.7493C5.24841 15.8479 5.26784 15.9456 5.30558 16.0367C5.34331 16.1278 5.39863 16.2106 5.46836 16.2803L11.4684 22.2803C11.538 22.3502 11.6208 22.4056 11.7119 22.4434C11.803 22.4812 11.9007 22.5007 11.9994 22.5007C12.098 22.5007 12.1957 22.4812 12.2868 22.4434C12.3779 22.4056 12.4607 22.3502 12.5304 22.2803L18.5304 16.2803C18.6001 16.2106 18.6554 16.1278 18.6931 16.0367C18.7309 15.9456 18.7503 15.8479 18.7503 15.7493C18.7503 15.6507 18.7309 15.5531 18.6931 15.462C18.6554 15.3708 18.6001 15.2881 18.5304 15.2183C18.4606 15.1486 18.3778 15.0933 18.2867 15.0555C18.1956 15.0178 18.098 14.9984 17.9994 14.9984C17.9007 14.9984 17.8031 15.0178 17.712 15.0555C17.6209 15.0933 17.5381 15.1486 17.4684 15.2183L12.7494 19.9388V2.24933C12.7494 2.05042 12.6703 1.85965 12.5297 1.719C12.389 1.57835 12.1983 1.49933 11.9994 1.49933Z" fill="black"/>
</svg>
