<svg width="24" height="24" viewBox="0 0 24 24" fill="none" xmlns="http://www.w3.org/2000/svg">
<path fill-rule="evenodd" clip-rule="evenodd" d="M11.9994 22.5007C12.1983 22.5007 12.389 22.4217 12.5297 22.281C12.6703 22.1403 12.7494 21.9496 12.7494 21.7507V4.06117L17.4684 8.78167C17.5381 8.8514 17.6209 8.90672 17.712 8.94445C17.8031 8.98219 17.9007 9.00162 17.9994 9.00162C18.098 9.00162 18.1956 8.98219 18.2867 8.94445C18.3778 8.90672 18.4606 8.8514 18.5304 8.78167C18.6001 8.71194 18.6554 8.62915 18.6931 8.53804C18.7309 8.44694 18.7503 8.34928 18.7503 8.25067C18.7503 8.15205 18.7309 8.0544 18.6931 7.96329C18.6554 7.87218 18.6001 7.7894 18.5304 7.71967L12.5304 1.71967C12.4607 1.64982 12.3779 1.59441 12.2868 1.5566C12.1957 1.51879 12.098 1.49933 11.9994 1.49933C11.9007 1.49933 11.803 1.51879 11.7119 1.5566C11.6208 1.59441 11.538 1.64982 11.4684 1.71967L5.46836 7.71967C5.39863 7.7894 5.34331 7.87218 5.30557 7.96329C5.26783 8.0544 5.24841 8.15205 5.24841 8.25067C5.24841 8.34928 5.26783 8.44694 5.30557 8.53804C5.34331 8.62915 5.39863 8.71194 5.46836 8.78167C5.53809 8.8514 5.62087 8.90672 5.71198 8.94445C5.80309 8.98219 5.90074 9.00162 5.99936 9.00162C6.09797 9.00162 6.19562 8.98219 6.28673 8.94445C6.37784 8.90672 6.46063 8.8514 6.53036 8.78167L11.2494 4.06117V21.7507C11.2494 21.9496 11.3284 22.1403 11.469 22.281C11.6097 22.4217 11.8004 22.5007 11.9994 22.5007Z" fill="black"/>
</svg>
