<svg width="24" height="24" viewBox="0 0 24 24" fill="none" xmlns="http://www.w3.org/2000/svg">
<path fill-rule="evenodd" clip-rule="evenodd" d="M1.49869 12C1.49869 12.1989 1.57771 12.3897 1.71836 12.5304C1.85901 12.671 2.04978 12.75 2.24869 12.75L19.9382 12.75L15.2177 17.469C15.148 17.5388 15.0926 17.6215 15.0549 17.7127C15.0172 17.8038 14.9977 17.9014 14.9977 18C14.9977 18.0986 15.0172 18.1963 15.0549 18.2874C15.0926 18.3785 15.148 18.4613 15.2177 18.531C15.2874 18.6008 15.3702 18.6561 15.4613 18.6938C15.5524 18.7316 15.6501 18.751 15.7487 18.751C15.8473 18.751 15.945 18.7316 16.0361 18.6938C16.1272 18.6561 16.21 18.6008 16.2797 18.531L22.2797 12.531C22.3495 12.4614 22.4049 12.3786 22.4428 12.2875C22.4806 12.1964 22.5 12.0987 22.5 12C22.5 11.9014 22.4806 11.8037 22.4428 11.7126C22.4049 11.6215 22.3495 11.5387 22.2797 11.469L16.2797 5.46903C16.21 5.3993 16.1272 5.34398 16.0361 5.30624C15.945 5.26851 15.8473 5.24908 15.7487 5.24908C15.6501 5.24908 15.5524 5.26851 15.4613 5.30624C15.3702 5.34398 15.2874 5.3993 15.2177 5.46903C15.148 5.53876 15.0926 5.62154 15.0549 5.71265C15.0172 5.80376 14.9977 5.90141 14.9977 6.00003C14.9977 6.09865 15.0172 6.1963 15.0549 6.28741C15.0926 6.37851 15.148 6.4613 15.2177 6.53103L19.9382 11.25L2.24869 11.25C2.04978 11.25 1.85901 11.329 1.71836 11.4697C1.57771 11.6104 1.49869 11.8011 1.49869 12Z" fill="black"/>
</svg>
