<svg width="24" height="24" viewBox="0 0 24 24" fill="none" xmlns="http://www.w3.org/2000/svg">
<g clip-path="url(#clip0_24_247)">
<path d="M23.0156 0H0.984375C0.703125 0 0.46875 0.09375 0.28125 0.28125C0.09375 0.46875 0 0.703125 0 0.984375V12.9844C0 13.2969 0.09375 13.5469 0.28125 13.7344C0.46875 13.9219 0.703125 14.0156 0.984375 14.0156H23.0156C23.2969 14.0156 23.5312 13.9219 23.7188 13.7344C23.9062 13.5469 24 13.2969 24 12.9844V0.984375C24 0.703125 23.9062 0.46875 23.7188 0.28125C23.5312 0.09375 23.2969 0 23.0156 0ZM2.01562 2.01562H3C3 2.29688 2.90625 2.53125 2.71875 2.71875C2.53125 2.90625 2.29688 3 2.01562 3V2.01562ZM2.01562 12V11.0156C2.67188 11.0156 3 11.3438 3 12H2.01562ZM8.48438 12H5.01562C5.01562 11.1562 4.72656 10.4453 4.14844 9.86719C3.57031 9.28906 2.85938 9 2.01562 9V5.01562C2.85938 5.01562 3.57031 4.72656 4.14844 4.14844C4.72656 3.57031 5.01562 2.85938 5.01562 2.01562H8.48438C7.48438 3.42188 6.98438 5.07812 6.98438 6.98438C6.98438 8.85938 7.48438 10.5312 8.48438 12ZM12 12C11.1875 12 10.4844 11.5 9.89062 10.5C9.29688 9.5 9 8.32812 9 6.98438C9 5.64062 9.29688 4.47656 9.89062 3.49219C10.4844 2.50781 11.1875 2.01562 12 2.01562C12.8125 2.01562 13.5156 2.50781 14.1094 3.49219C14.7031 4.47656 15 5.64062 15 6.98438C15 8.35938 14.7109 9.53906 14.1328 10.5234C13.5547 11.5078 12.8438 12 12 12ZM21.9844 12H21C21 11.3438 21.3281 11.0156 21.9844 11.0156V12ZM21.9844 9C21.1406 9 20.4297 9.28906 19.8516 9.86719C19.2734 10.4453 18.9844 11.1562 18.9844 12H15.6094C16.6094 10.5312 17.1094 8.85938 17.1094 6.98438C17.1094 5.07812 16.6094 3.42188 15.6094 2.01562H18.9844C18.9844 2.85938 19.2734 3.57031 19.8516 4.14844C20.4297 4.72656 21.1406 5.01562 21.9844 5.01562V9ZM21.9844 3C21.7031 3 21.4688 2.90625 21.2812 2.71875C21.0938 2.53125 21 2.29688 21 2.01562H21.9844V3ZM21.9844 17.0156H16.4062C16.8125 16.4531 17.0156 15.7812 17.0156 15H15C15 15.0625 14.9922 15.1406 14.9766 15.2344C14.9609 15.3281 14.8984 15.4922 14.7891 15.7266C14.6797 15.9609 14.5312 16.1641 14.3438 16.3359C14.1562 16.5078 13.8594 16.6641 13.4531 16.8047C13.0469 16.9453 12.5625 17.0156 12 17.0156C11.1562 17.0156 10.4844 16.8516 9.98438 16.5234C9.48438 16.1953 9.19531 15.9062 9.11719 15.6562C9.03906 15.4062 9 15.1875 9 15H6.98438C6.98438 15.5938 7.1875 16.2656 7.59375 17.0156H2.01562V15H0V17.0156C0 17.5469 0.195312 18.0078 0.585938 18.3984C0.976562 18.7891 1.45312 18.9844 2.01562 18.9844H21.9844C22.5469 18.9844 23.0234 18.7891 23.4141 18.3984C23.8047 18.0078 24 17.5469 24 17.0156V15H21.9844V17.0156ZM21.9844 21.9844H16.4062C16.8125 21.4219 17.0156 20.7656 17.0156 20.0156H15C15 20.2031 14.9688 20.4062 14.9062 20.625C14.8438 20.8438 14.5703 21.125 14.0859 21.4688C13.6016 21.8125 12.9062 21.9844 12 21.9844C11.1562 21.9844 10.4844 21.8281 9.98438 21.5156C9.48438 21.2031 9.19531 20.9219 9.11719 20.6719C9.03906 20.4219 9 20.2031 9 20.0156H6.98438C6.98438 20.5781 7.1875 21.2344 7.59375 21.9844H2.01562V20.0156H0V21.9844C0 22.5469 0.195312 23.0234 0.585938 23.4141C0.976562 23.8047 1.45312 24 2.01562 24H21.9844C22.5469 24 23.0234 23.8047 23.4141 23.4141C23.8047 23.0234 24 22.5469 24 21.9844V20.0156H21.9844V21.9844Z" fill="black"/>
</g>
<defs>
<clipPath id="clip0_24_247">
<rect width="24" height="24" fill="white"/>
</clipPath>
</defs>
</svg>
