<svg width="24" height="25" viewBox="0 0 24 25" fill="none" xmlns="http://www.w3.org/2000/svg">
<path d="M21 5.27295H15C14.4178 5.27295 13.8437 5.40849 13.3229 5.66885C12.8022 5.9292 12.3493 6.30721 12 6.77295C11.6507 6.30721 11.1978 5.9292 10.6771 5.66885C10.1563 5.40849 9.58217 5.27295 9 5.27295H3C2.60218 5.27295 2.22064 5.43098 1.93934 5.71229C1.65804 5.99359 1.5 6.37512 1.5 6.77295V18.7729C1.5 19.1708 1.65804 19.5523 1.93934 19.8336C2.22064 20.1149 2.60218 20.2729 3 20.2729H9C9.59598 20.2754 10.1668 20.5133 10.5883 20.9347C11.0097 21.3561 11.2475 21.927 11.25 22.5229C11.25 22.7219 11.329 22.9126 11.4697 23.0533C11.6103 23.1939 11.8011 23.2729 12 23.2729C12.1989 23.2729 12.3897 23.1939 12.5303 23.0533C12.671 22.9126 12.75 22.7219 12.75 22.5229C12.7525 21.927 12.9903 21.3561 13.4117 20.9347C13.8332 20.5133 14.404 20.2754 15 20.2729H21C21.3978 20.2729 21.7794 20.1149 22.0607 19.8336C22.342 19.5523 22.5 19.1708 22.5 18.7729V6.77295C22.5 6.37512 22.342 5.99359 22.0607 5.71229C21.7794 5.43098 21.3978 5.27295 21 5.27295ZM9 18.7729H3V6.77295H9C9.59598 6.77542 10.1668 7.01326 10.5883 7.43469C11.0097 7.85611 11.2475 8.42697 11.25 9.02295V19.5229C10.6009 19.0361 9.81139 18.7729 9 18.7729ZM21 18.7729H15C14.1886 18.7729 13.3991 19.0361 12.75 19.5229V9.02295C12.7525 8.42697 12.9903 7.85611 13.4117 7.43469C13.8332 7.01326 14.404 6.77542 15 6.77295H21V18.7729Z" fill="#D8F3DC"/>
</svg>
