<svg width="24" height="24" viewBox="0 0 24 24" fill="none" xmlns="http://www.w3.org/2000/svg">
<path d="M21 4.5H15C14.4178 4.5 13.8437 4.63554 13.3229 4.8959C12.8022 5.15625 12.3493 5.53426 12 6C11.6507 5.53426 11.1978 5.15625 10.6771 4.8959C10.1563 4.63554 9.58217 4.5 9 4.5H3C2.60218 4.5 2.22064 4.65804 1.93934 4.93934C1.65804 5.22064 1.5 5.60218 1.5 6V18C1.5 18.3978 1.65804 18.7794 1.93934 19.0607C2.22064 19.342 2.60218 19.5 3 19.5H9C9.59598 19.5025 10.1668 19.7403 10.5883 20.1617C11.0097 20.5832 11.2475 21.154 11.25 21.75C11.25 21.9489 11.329 22.1397 11.4697 22.2803C11.6103 22.421 11.8011 22.5 12 22.5C12.1989 22.5 12.3897 22.421 12.5303 22.2803C12.671 22.1397 12.75 21.9489 12.75 21.75C12.7525 21.154 12.9903 20.5832 13.4117 20.1617C13.8332 19.7403 14.404 19.5025 15 19.5H21C21.3978 19.5 21.7794 19.342 22.0607 19.0607C22.342 18.7794 22.5 18.3978 22.5 18V6C22.5 5.60218 22.342 5.22064 22.0607 4.93934C21.7794 4.65804 21.3978 4.5 21 4.5ZM9 18H3V6H9C9.59598 6.00247 10.1668 6.24031 10.5883 6.66174C11.0097 7.08316 11.2475 7.65402 11.25 8.25V18.75C10.6009 18.2632 9.81139 18 9 18ZM21 18H15C14.1886 18 13.3991 18.2632 12.75 18.75V8.25C12.7525 7.65402 12.9903 7.08316 13.4117 6.66174C13.8332 6.24031 14.404 6.00247 15 6H21V18Z" fill="black"/>
</svg>
