<svg width="21" height="24" viewBox="0 0 21 24" fill="none" xmlns="http://www.w3.org/2000/svg">
<path d="M8.14035 5.4707C8.26579 5.41097 8.40298 5.38002 8.54191 5.3801H14.3685C15.0585 5.3801 15.702 5.425 16.2901 5.51965C16.4547 5.54589 16.6184 5.57722 16.781 5.61359C17.0115 5.66445 17.2393 5.7267 17.4636 5.8001C17.7527 5.89666 18.022 6.00911 18.2695 6.14079C18.5611 4.27992 18.2674 3.01444 17.2612 1.86808C16.1533 0.605932 14.1522 0.0648193 11.5914 0.0648193H4.15873C3.63542 0.0648193 3.19023 0.445799 3.10822 0.962356L0.0136461 20.5882C-0.0478638 20.9758 0.251818 21.3258 0.643448 21.3258H5.23238L7.62308 6.16527C7.64658 6.01625 7.70595 5.87518 7.79605 5.75419C7.88616 5.6332 8.00431 5.53591 8.14035 5.4707Z" fill="#27346A"/>
<path d="M18.1933 6.57605C17.2136 11.6081 13.8598 13.3486 9.57645 13.3486H7.39547C6.87224 13.3486 6.43031 13.7296 6.34901 14.2463L4.91545 23.3341C4.86188 23.6728 5.12382 23.9797 5.46649 23.9797H9.33431C9.55587 23.9796 9.77014 23.9005 9.93859 23.7566C10.107 23.6127 10.2186 23.4134 10.2532 23.1945L10.2909 22.9975L11.0199 18.3774L11.0668 18.122C11.1015 17.9032 11.213 17.7039 11.3814 17.56C11.5499 17.4161 11.7641 17.337 11.9857 17.3369H12.5645C16.3113 17.3369 19.2451 15.8147 20.1024 11.4124C20.4603 9.57263 20.2751 8.03663 19.3285 6.95775C19.0414 6.63097 18.6849 6.36108 18.2695 6.14079C18.247 6.28304 18.2225 6.4272 18.1933 6.57605Z" fill="#2790C3"/>
<path d="M17.2441 5.732C17.0913 5.68739 16.9364 5.6479 16.781 5.61359C16.6184 5.57722 16.4547 5.54589 16.2901 5.51965C15.702 5.425 15.0585 5.3801 14.3685 5.3801H8.54191C8.40298 5.38002 8.26579 5.41097 8.14035 5.4707C8.00431 5.53591 7.88616 5.6332 7.79605 5.75419C7.70595 5.87518 7.64658 6.01625 7.62308 6.16527L6.38533 14.0174L6.34901 14.2463C6.43031 13.7296 6.87224 13.3486 7.39547 13.3486H9.57645C13.8598 13.3486 17.2136 11.6081 18.1933 6.57605C18.2225 6.4272 18.247 6.28304 18.2695 6.14079C18.022 6.00911 17.7527 5.89666 17.4636 5.8001C17.3907 5.77591 17.3178 5.75363 17.2441 5.732Z" fill="#1F264F"/>
</svg>
