<svg width="18" height="18" viewBox="0 0 18 18" fill="none" xmlns="http://www.w3.org/2000/svg">
<path d="M8.74997 0C8.93121 7.6429e-06 9.10631 0.0656426 9.2429 0.184767C9.37949 0.303891 9.46832 0.468446 9.49297 0.648L9.49997 0.75L9.50097 8H16.754C16.944 8.00006 17.1269 8.07224 17.2658 8.20197C17.4046 8.3317 17.489 8.5093 17.502 8.69888C17.5149 8.88846 17.4555 9.07589 17.3355 9.2233C17.2156 9.37071 17.0442 9.4671 16.856 9.493L16.754 9.5H9.50097L9.50297 16.75C9.50266 16.9399 9.43029 17.1227 9.30049 17.2613C9.17068 17.4 8.9931 17.4842 8.80359 17.4971C8.61409 17.5099 8.42677 17.4503 8.27947 17.3304C8.13217 17.2105 8.03586 17.0392 8.00997 16.851L8.00297 16.749L8.00097 9.5H0.751969C0.561945 9.49994 0.379028 9.42776 0.240177 9.29803C0.101326 9.1683 0.0168946 8.9907 0.00394265 8.80112C-0.00900934 8.61154 0.050484 8.42411 0.170401 8.2767C0.290318 8.12929 0.461719 8.0329 0.649969 8.007L0.751969 8H8.00197L7.99997 0.75C7.99997 0.551088 8.07899 0.360322 8.21964 0.21967C8.36029 0.0790175 8.55106 0 8.74997 0Z" fill="black"/>
</svg>
