<svg width="24" height="24" viewBox="0 0 24 24" fill="none" xmlns="http://www.w3.org/2000/svg">
<path d="M18.4925 9.66129C18.493 9.81069 18.46 9.9583 18.396 10.0933C18.3319 10.2283 18.2385 10.3472 18.1225 10.4413L12.1225 15.2713C11.9435 15.4184 11.7191 15.4988 11.4875 15.4988C11.2558 15.4988 11.0314 15.4184 10.8525 15.2713L4.85246 10.2713C4.64825 10.1016 4.51982 9.85764 4.49544 9.59322C4.47106 9.32879 4.55272 9.06551 4.72246 8.86129C4.8922 8.65707 5.13611 8.52865 5.40054 8.50427C5.66497 8.47989 5.92825 8.56155 6.13246 8.73129L11.4925 13.2013L16.8525 8.88129C16.9992 8.75901 17.178 8.68133 17.3675 8.65745C17.5571 8.63357 17.7495 8.66449 17.922 8.74655C18.0946 8.8286 18.24 8.95836 18.3411 9.12047C18.4422 9.28258 18.4947 9.47026 18.4925 9.66129Z" fill="black"/>
</svg>
