<svg width="23" height="24" viewBox="0 0 23 24" fill="none" xmlns="http://www.w3.org/2000/svg">
<path d="M4.68882 8.94648V20.1997H0.937744V8.94648H4.68882ZM8.43989 20.1997C7.94247 20.1997 7.46542 20.0021 7.11369 19.6504C6.76195 19.2986 6.56435 18.8216 6.56435 18.3242V8.94648C6.56435 8.43071 6.77066 7.96183 7.11764 7.62423L13.2882 1.44434L14.2822 2.43837C14.5354 2.69157 14.6948 3.03854 14.6948 3.42303L14.6667 3.72311L13.7758 8.00871H19.6931C20.1905 8.00871 20.6676 8.20632 21.0193 8.55805C21.371 8.90978 21.5686 9.38683 21.5686 9.88425V11.7598C21.5686 12.0036 21.5218 12.2287 21.4374 12.4444L18.6053 19.0556C18.324 19.7308 17.6582 20.1997 16.8798 20.1997H8.43989ZM8.43989 18.3242H16.9079L19.6931 11.7598V9.88425H11.4501L12.5098 4.89532L8.43989 8.97462V18.3242Z" fill="#E7FEE7"/>
</svg>
