<svg width="24" height="24" viewBox="0 0 24 24" fill="none" xmlns="http://www.w3.org/2000/svg">
<path d="M18.3239 14.573V3.31982H22.075V14.573H18.3239ZM14.5728 3.31982C15.0703 3.31982 15.5473 3.51742 15.8991 3.86916C16.2508 4.22089 16.4484 4.69794 16.4484 5.19536V14.573C16.4484 15.0888 16.2421 15.5577 15.8951 15.8953L9.72459 22.0752L8.73055 21.0812C8.47735 20.828 8.31793 20.481 8.31793 20.0871L8.34607 19.7964L9.23695 15.5108H3.31963C2.82221 15.5108 2.34516 15.3132 1.99342 14.9615C1.64169 14.6097 1.44409 14.1327 1.44409 13.6353V11.7597C1.44409 11.5159 1.49098 11.2909 1.57538 11.0752L4.40744 4.4639C4.68877 3.78871 5.35459 3.31982 6.13293 3.31982H14.5728ZM14.5728 5.19536H6.1048L3.31963 11.7597V13.6353H11.5532L10.4936 18.6242L14.5728 14.5449V5.19536Z" fill="#E7FEE7"/>
</svg>
