<svg width="18" height="18" viewBox="0 0 18 18" fill="none" xmlns="http://www.w3.org/2000/svg">
<path d="M9.99993 2.07001C11.7489 2.32629 13.3362 3.23457 14.4433 4.61257C15.5504 5.99056 16.0953 7.73629 15.9688 9.49939C15.8422 11.2625 15.0535 12.9125 13.7609 14.1182C12.4683 15.3239 10.7676 15.9962 8.99993 16C7.59042 16.0001 6.21373 15.5746 5.05002 14.7793C3.88632 13.984 2.98981 12.8559 2.47783 11.5426C1.96585 10.2294 1.86224 8.7922 2.18057 7.41911C2.4989 6.04601 3.22433 4.801 4.26193 3.84701L2.84693 2.43201C1.28699 3.89383 0.298344 5.86321 0.0580349 7.9875C-0.182274 10.1118 0.341444 12.2522 1.53541 14.0256C2.72938 15.799 4.51561 17.0894 6.57427 17.6658C8.63293 18.2423 10.8296 18.0671 12.7708 17.1716C14.7121 16.2761 16.2712 14.7189 17.1689 12.7787C18.0667 10.8385 18.2445 8.64206 17.6705 6.58272C17.0965 4.52338 15.8082 2.73561 14.0363 1.53954C12.2643 0.343477 10.1245 -0.18278 7.99993 0.0550104V6.08501H9.99993V2.07001Z" fill="black"/>
<path d="M4.70693 5.70701C4.51946 5.89454 4.41414 6.14885 4.41414 6.41401C4.41414 6.67917 4.51946 6.93348 4.70693 7.12101L7.53593 9.95001C7.72453 10.1322 7.97714 10.233 8.23933 10.2307C8.50153 10.2284 8.75234 10.1232 8.93775 9.93783C9.12316 9.75242 9.22833 9.50161 9.23061 9.23941C9.23288 8.97721 9.13209 8.72461 8.94993 8.53601L6.11993 5.70701C5.9324 5.51954 5.6781 5.41422 5.41293 5.41422C5.14777 5.41422 4.89446 5.51954 4.70693 5.70701Z" fill="black"/>
</svg>
