<svg width="291" height="111" viewBox="0 0 291 111" fill="none" xmlns="http://www.w3.org/2000/svg">
<path d="M47.0781 17.9225C45.0573 18.5788 43.0313 19.3027 40.9896 20.0944C39.5 17.6882 38.3542 12.5059 39.6979 4.47461C41.7188 5.01107 43.8438 5.91732 45.9375 7.05273C45.9948 11.1882 46.6667 15.5736 47.0781 17.9225Z" fill="#91D4AF"/>
<path d="M47.0781 17.9225C45.0573 18.5788 43.0313 19.3027 40.9896 20.0944C39.5 17.6882 38.3542 12.5059 39.6979 4.47461C41.7188 5.01107 43.8438 5.91732 45.9375 7.05273C45.9948 11.1882 46.6667 15.5736 47.0781 17.9225Z" fill="url(#paint0_linear_1007_12147)"/>
<path d="M47.0781 17.9225C45.0573 18.5788 43.0313 19.3027 40.9896 20.0944C39.5 17.6882 38.3542 12.5059 39.6979 4.47461C41.7188 5.01107 43.8438 5.91732 45.9375 7.05273C45.9948 11.1882 46.6667 15.5736 47.0781 17.9225Z" fill="url(#paint1_linear_1007_12147)"/>
<path d="M47.0781 17.9225C45.0573 18.5788 43.0313 19.3027 40.9896 20.0944C39.5 17.6882 38.3542 12.5059 39.6979 4.47461C41.7188 5.01107 43.8438 5.91732 45.9375 7.05273C45.9948 11.1882 46.6667 15.5736 47.0781 17.9225Z" fill="url(#paint2_linear_1007_12147)"/>
<path d="M44.5054 73.2716C48.271 79.0476 49.8908 86.1934 48.9897 93.032C48.0887 99.8705 44.672 106.35 39.5366 110.959C47.5522 111.053 81.521 101.193 81.521 73.2716C85.396 77.4955 87.6929 83.7924 88.3387 89.4903C93.4845 82.6518 94.5366 74.4851 92.9897 67.5216C92.0627 70.7612 91.6252 74.4278 89.2606 77.6101C87.8595 71.9955 83.2085 67.6049 77.9429 65.1882C77.9689 72.7299 75.172 80.3497 70.5939 86.3393C66.0106 92.3289 61.5679 96.0893 54.2814 98.0476C55.8543 88.4955 53.1043 77.4747 44.5054 73.2716Z" fill="#91D4AF"/>
<path d="M44.5054 73.2716C48.271 79.0476 49.8908 86.1934 48.9897 93.032C48.0887 99.8705 44.672 106.35 39.5366 110.959C47.5522 111.053 81.521 101.193 81.521 73.2716C85.396 77.4955 87.6929 83.7924 88.3387 89.4903C93.4845 82.6518 94.5366 74.4851 92.9897 67.5216C92.0627 70.7612 91.6252 74.4278 89.2606 77.6101C87.8595 71.9955 83.2085 67.6049 77.9429 65.1882C77.9689 72.7299 75.172 80.3497 70.5939 86.3393C66.0106 92.3289 61.5679 96.0893 54.2814 98.0476C55.8543 88.4955 53.1043 77.4747 44.5054 73.2716Z" fill="url(#paint3_linear_1007_12147)"/>
<path d="M44.5054 73.2716C48.271 79.0476 49.8908 86.1934 48.9897 93.032C48.0887 99.8705 44.672 106.35 39.5366 110.959C47.5522 111.053 81.521 101.193 81.521 73.2716C85.396 77.4955 87.6929 83.7924 88.3387 89.4903C93.4845 82.6518 94.5366 74.4851 92.9897 67.5216C92.0627 70.7612 91.6252 74.4278 89.2606 77.6101C87.8595 71.9955 83.2085 67.6049 77.9429 65.1882C77.9689 72.7299 75.172 80.3497 70.5939 86.3393C66.0106 92.3289 61.5679 96.0893 54.2814 98.0476C55.8543 88.4955 53.1043 77.4747 44.5054 73.2716Z" fill="url(#paint4_linear_1007_12147)"/>
<path d="M44.5054 73.2716C48.271 79.0476 49.8908 86.1934 48.9897 93.032C48.0887 99.8705 44.672 106.35 39.5366 110.959C47.5522 111.053 81.521 101.193 81.521 73.2716C85.396 77.4955 87.6929 83.7924 88.3387 89.4903C93.4845 82.6518 94.5366 74.4851 92.9897 67.5216C92.0627 70.7612 91.6252 74.4278 89.2606 77.6101C87.8595 71.9955 83.2085 67.6049 77.9429 65.1882C77.9689 72.7299 75.172 80.3497 70.5939 86.3393C66.0106 92.3289 61.5679 96.0893 54.2814 98.0476C55.8543 88.4955 53.1043 77.4747 44.5054 73.2716Z" fill="url(#paint5_linear_1007_12147)"/>
<path d="M62.2032 16.7142C61.1407 16.7247 59.948 16.8184 58.6563 16.9851C57.875 15.5007 56.3073 13.8444 54.974 12.8236C54.5886 14.6726 54.7552 16.1778 55.2032 17.5163C54.6511 17.7455 53.823 17.7819 53.2709 18.0111C51.3698 14.8809 51.4584 11.1778 52.0157 7.11007C56.8177 8.99027 60.7344 12.2663 63.0261 16.709C62.7448 16.6986 62.474 16.6986 62.2032 16.7142ZM36.0625 34.9747C35.849 35.5163 35.599 36.0788 35.1302 36.4174C34.6615 36.7507 34.0625 36.8132 33.4896 36.8653C32.0886 36.9903 30.2917 36.6622 28.8907 36.7872C31.3646 34.2611 34.1563 32.0476 37.1771 30.2194C36.9011 31.8653 36.6667 33.4174 36.0625 34.9747ZM105 36.2819C97.3855 24.9903 84.1407 17.6934 70.5209 17.2872C70.6407 17.4278 70.7657 17.5632 70.8907 17.7038C70.7709 17.6674 70.6511 17.6309 70.5313 17.5944C70.7032 20.1465 70.3907 22.7142 70.3907 22.7142C69.5261 20.0528 67.7605 16.8809 67.7605 16.8809C64.5677 11.209 55.948 3.48507 48.4948 0.979858C46.5573 11.3913 49.2761 19.2403 49.2761 19.2403C43.3855 21.0424 37.6459 23.3809 32.1094 26.0997C29.7969 27.2403 27.9636 29.1569 26.9219 31.5163C26.2917 32.9382 25.6563 34.3601 25.1094 35.808C17.6198 39.1413 10.1302 42.4694 2.64066 45.8028C1.40108 46.3549 0.010454 47.0632 3.79691e-05 48.6153C-0.00517136 49.5528 0.526079 50.4017 1.33337 50.8757C2.42712 51.5215 3.53129 52.4851 4.81254 52.6205C4.85941 52.7455 4.89066 52.8757 4.95837 52.9851C10.5313 62.3653 15.823 60.1361 17.5417 65.7507C18.1094 67.6205 20.0782 68.4069 22.0261 68.5788C23.974 68.7507 25.9271 68.4017 27.8594 68.1153C34.2657 67.1778 40.849 66.9538 47.1771 68.308C53.5105 69.6569 59.599 72.6726 63.9375 77.4747C62.0677 69.1361 53.5209 65.0528 53.5209 65.0528C53.5209 65.0528 57.2813 63.8965 60.2136 64.433C53.3698 59.3965 34.7761 59.8236 21.8594 62.2715C20.2344 58.1413 13.5938 56.2403 12.8959 51.6882C23.2292 47.4434 42.0469 44.2611 53.1823 45.1674C50.9167 42.3861 38.2605 41.209 38.2605 41.209C49.2188 38.4226 74.1667 40.3444 82.4011 45.5997C79.6771 36.8913 68.5209 30.5736 68.5209 30.5736C68.5209 30.5736 89.9219 28.8653 105 36.2819Z" fill="#91D4AF"/>
<path d="M62.2032 16.7142C61.1407 16.7247 59.948 16.8184 58.6563 16.9851C57.875 15.5007 56.3073 13.8444 54.974 12.8236C54.5886 14.6726 54.7552 16.1778 55.2032 17.5163C54.6511 17.7455 53.823 17.7819 53.2709 18.0111C51.3698 14.8809 51.4584 11.1778 52.0157 7.11007C56.8177 8.99027 60.7344 12.2663 63.0261 16.709C62.7448 16.6986 62.474 16.6986 62.2032 16.7142ZM36.0625 34.9747C35.849 35.5163 35.599 36.0788 35.1302 36.4174C34.6615 36.7507 34.0625 36.8132 33.4896 36.8653C32.0886 36.9903 30.2917 36.6622 28.8907 36.7872C31.3646 34.2611 34.1563 32.0476 37.1771 30.2194C36.9011 31.8653 36.6667 33.4174 36.0625 34.9747ZM105 36.2819C97.3855 24.9903 84.1407 17.6934 70.5209 17.2872C70.6407 17.4278 70.7657 17.5632 70.8907 17.7038C70.7709 17.6674 70.6511 17.6309 70.5313 17.5944C70.7032 20.1465 70.3907 22.7142 70.3907 22.7142C69.5261 20.0528 67.7605 16.8809 67.7605 16.8809C64.5677 11.209 55.948 3.48507 48.4948 0.979858C46.5573 11.3913 49.2761 19.2403 49.2761 19.2403C43.3855 21.0424 37.6459 23.3809 32.1094 26.0997C29.7969 27.2403 27.9636 29.1569 26.9219 31.5163C26.2917 32.9382 25.6563 34.3601 25.1094 35.808C17.6198 39.1413 10.1302 42.4694 2.64066 45.8028C1.40108 46.3549 0.010454 47.0632 3.79691e-05 48.6153C-0.00517136 49.5528 0.526079 50.4017 1.33337 50.8757C2.42712 51.5215 3.53129 52.4851 4.81254 52.6205C4.85941 52.7455 4.89066 52.8757 4.95837 52.9851C10.5313 62.3653 15.823 60.1361 17.5417 65.7507C18.1094 67.6205 20.0782 68.4069 22.0261 68.5788C23.974 68.7507 25.9271 68.4017 27.8594 68.1153C34.2657 67.1778 40.849 66.9538 47.1771 68.308C53.5105 69.6569 59.599 72.6726 63.9375 77.4747C62.0677 69.1361 53.5209 65.0528 53.5209 65.0528C53.5209 65.0528 57.2813 63.8965 60.2136 64.433C53.3698 59.3965 34.7761 59.8236 21.8594 62.2715C20.2344 58.1413 13.5938 56.2403 12.8959 51.6882C23.2292 47.4434 42.0469 44.2611 53.1823 45.1674C50.9167 42.3861 38.2605 41.209 38.2605 41.209C49.2188 38.4226 74.1667 40.3444 82.4011 45.5997C79.6771 36.8913 68.5209 30.5736 68.5209 30.5736C68.5209 30.5736 89.9219 28.8653 105 36.2819Z" fill="url(#paint6_linear_1007_12147)"/>
<path d="M62.2032 16.7142C61.1407 16.7247 59.948 16.8184 58.6563 16.9851C57.875 15.5007 56.3073 13.8444 54.974 12.8236C54.5886 14.6726 54.7552 16.1778 55.2032 17.5163C54.6511 17.7455 53.823 17.7819 53.2709 18.0111C51.3698 14.8809 51.4584 11.1778 52.0157 7.11007C56.8177 8.99027 60.7344 12.2663 63.0261 16.709C62.7448 16.6986 62.474 16.6986 62.2032 16.7142ZM36.0625 34.9747C35.849 35.5163 35.599 36.0788 35.1302 36.4174C34.6615 36.7507 34.0625 36.8132 33.4896 36.8653C32.0886 36.9903 30.2917 36.6622 28.8907 36.7872C31.3646 34.2611 34.1563 32.0476 37.1771 30.2194C36.9011 31.8653 36.6667 33.4174 36.0625 34.9747ZM105 36.2819C97.3855 24.9903 84.1407 17.6934 70.5209 17.2872C70.6407 17.4278 70.7657 17.5632 70.8907 17.7038C70.7709 17.6674 70.6511 17.6309 70.5313 17.5944C70.7032 20.1465 70.3907 22.7142 70.3907 22.7142C69.5261 20.0528 67.7605 16.8809 67.7605 16.8809C64.5677 11.209 55.948 3.48507 48.4948 0.979858C46.5573 11.3913 49.2761 19.2403 49.2761 19.2403C43.3855 21.0424 37.6459 23.3809 32.1094 26.0997C29.7969 27.2403 27.9636 29.1569 26.9219 31.5163C26.2917 32.9382 25.6563 34.3601 25.1094 35.808C17.6198 39.1413 10.1302 42.4694 2.64066 45.8028C1.40108 46.3549 0.010454 47.0632 3.79691e-05 48.6153C-0.00517136 49.5528 0.526079 50.4017 1.33337 50.8757C2.42712 51.5215 3.53129 52.4851 4.81254 52.6205C4.85941 52.7455 4.89066 52.8757 4.95837 52.9851C10.5313 62.3653 15.823 60.1361 17.5417 65.7507C18.1094 67.6205 20.0782 68.4069 22.0261 68.5788C23.974 68.7507 25.9271 68.4017 27.8594 68.1153C34.2657 67.1778 40.849 66.9538 47.1771 68.308C53.5105 69.6569 59.599 72.6726 63.9375 77.4747C62.0677 69.1361 53.5209 65.0528 53.5209 65.0528C53.5209 65.0528 57.2813 63.8965 60.2136 64.433C53.3698 59.3965 34.7761 59.8236 21.8594 62.2715C20.2344 58.1413 13.5938 56.2403 12.8959 51.6882C23.2292 47.4434 42.0469 44.2611 53.1823 45.1674C50.9167 42.3861 38.2605 41.209 38.2605 41.209C49.2188 38.4226 74.1667 40.3444 82.4011 45.5997C79.6771 36.8913 68.5209 30.5736 68.5209 30.5736C68.5209 30.5736 89.9219 28.8653 105 36.2819Z" fill="url(#paint7_linear_1007_12147)"/>
<path d="M62.2032 16.7142C61.1407 16.7247 59.948 16.8184 58.6563 16.9851C57.875 15.5007 56.3073 13.8444 54.974 12.8236C54.5886 14.6726 54.7552 16.1778 55.2032 17.5163C54.6511 17.7455 53.823 17.7819 53.2709 18.0111C51.3698 14.8809 51.4584 11.1778 52.0157 7.11007C56.8177 8.99027 60.7344 12.2663 63.0261 16.709C62.7448 16.6986 62.474 16.6986 62.2032 16.7142ZM36.0625 34.9747C35.849 35.5163 35.599 36.0788 35.1302 36.4174C34.6615 36.7507 34.0625 36.8132 33.4896 36.8653C32.0886 36.9903 30.2917 36.6622 28.8907 36.7872C31.3646 34.2611 34.1563 32.0476 37.1771 30.2194C36.9011 31.8653 36.6667 33.4174 36.0625 34.9747ZM105 36.2819C97.3855 24.9903 84.1407 17.6934 70.5209 17.2872C70.6407 17.4278 70.7657 17.5632 70.8907 17.7038C70.7709 17.6674 70.6511 17.6309 70.5313 17.5944C70.7032 20.1465 70.3907 22.7142 70.3907 22.7142C69.5261 20.0528 67.7605 16.8809 67.7605 16.8809C64.5677 11.209 55.948 3.48507 48.4948 0.979858C46.5573 11.3913 49.2761 19.2403 49.2761 19.2403C43.3855 21.0424 37.6459 23.3809 32.1094 26.0997C29.7969 27.2403 27.9636 29.1569 26.9219 31.5163C26.2917 32.9382 25.6563 34.3601 25.1094 35.808C17.6198 39.1413 10.1302 42.4694 2.64066 45.8028C1.40108 46.3549 0.010454 47.0632 3.79691e-05 48.6153C-0.00517136 49.5528 0.526079 50.4017 1.33337 50.8757C2.42712 51.5215 3.53129 52.4851 4.81254 52.6205C4.85941 52.7455 4.89066 52.8757 4.95837 52.9851C10.5313 62.3653 15.823 60.1361 17.5417 65.7507C18.1094 67.6205 20.0782 68.4069 22.0261 68.5788C23.974 68.7507 25.9271 68.4017 27.8594 68.1153C34.2657 67.1778 40.849 66.9538 47.1771 68.308C53.5105 69.6569 59.599 72.6726 63.9375 77.4747C62.0677 69.1361 53.5209 65.0528 53.5209 65.0528C53.5209 65.0528 57.2813 63.8965 60.2136 64.433C53.3698 59.3965 34.7761 59.8236 21.8594 62.2715C20.2344 58.1413 13.5938 56.2403 12.8959 51.6882C23.2292 47.4434 42.0469 44.2611 53.1823 45.1674C50.9167 42.3861 38.2605 41.209 38.2605 41.209C49.2188 38.4226 74.1667 40.3444 82.4011 45.5997C79.6771 36.8913 68.5209 30.5736 68.5209 30.5736C68.5209 30.5736 89.9219 28.8653 105 36.2819Z" fill="url(#paint8_linear_1007_12147)"/>
<path d="M155.838 39.4537L145.046 74.4121H137.692L131.13 52.7454C130.989 52.4121 130.864 52.0475 130.755 51.6412C130.64 51.2246 130.531 50.7975 130.421 50.3496C130.307 50.7975 130.197 51.2246 130.088 51.6412C129.973 52.0475 129.859 52.4121 129.734 52.7454L123.067 74.4121H115.713L104.921 39.4537H111.734C112.427 39.4537 113.01 39.6152 113.484 39.9329C113.953 40.2558 114.265 40.6777 114.421 41.2037L119.213 59.4329C119.364 60.0162 119.51 60.6517 119.651 61.3287C119.786 62.011 119.932 62.7194 120.088 63.4537C120.364 61.9433 120.713 60.5996 121.13 59.4329L126.796 41.2037C126.947 40.7454 127.26 40.3444 127.734 39.9954C128.203 39.636 128.776 39.4537 129.442 39.4537H131.838C132.546 39.4537 133.114 39.6204 133.546 39.9537C133.973 40.2767 134.302 40.6933 134.526 41.2037L140.151 59.4329C140.567 60.5579 140.911 61.8287 141.192 63.2454C141.328 62.5267 141.463 61.8496 141.588 61.2246C141.723 60.5892 141.869 59.9902 142.026 59.4329L146.817 41.2037C146.942 40.735 147.239 40.3235 147.713 39.9746C148.197 39.6308 148.781 39.4537 149.463 39.4537H155.838Z" fill="#91D4AF"/>
<path d="M155.838 39.4537L145.046 74.4121H137.692L131.13 52.7454C130.989 52.4121 130.864 52.0475 130.755 51.6412C130.64 51.2246 130.531 50.7975 130.421 50.3496C130.307 50.7975 130.197 51.2246 130.088 51.6412C129.973 52.0475 129.859 52.4121 129.734 52.7454L123.067 74.4121H115.713L104.921 39.4537H111.734C112.427 39.4537 113.01 39.6152 113.484 39.9329C113.953 40.2558 114.265 40.6777 114.421 41.2037L119.213 59.4329C119.364 60.0162 119.51 60.6517 119.651 61.3287C119.786 62.011 119.932 62.7194 120.088 63.4537C120.364 61.9433 120.713 60.5996 121.13 59.4329L126.796 41.2037C126.947 40.7454 127.26 40.3444 127.734 39.9954C128.203 39.636 128.776 39.4537 129.442 39.4537H131.838C132.546 39.4537 133.114 39.6204 133.546 39.9537C133.973 40.2767 134.302 40.6933 134.526 41.2037L140.151 59.4329C140.567 60.5579 140.911 61.8287 141.192 63.2454C141.328 62.5267 141.463 61.8496 141.588 61.2246C141.723 60.5892 141.869 59.9902 142.026 59.4329L146.817 41.2037C146.942 40.735 147.239 40.3235 147.713 39.9746C148.197 39.6308 148.781 39.4537 149.463 39.4537H155.838Z" fill="url(#paint9_linear_1007_12147)"/>
<path d="M155.838 39.4537L145.046 74.4121H137.692L131.13 52.7454C130.989 52.4121 130.864 52.0475 130.755 51.6412C130.64 51.2246 130.531 50.7975 130.421 50.3496C130.307 50.7975 130.197 51.2246 130.088 51.6412C129.973 52.0475 129.859 52.4121 129.734 52.7454L123.067 74.4121H115.713L104.921 39.4537H111.734C112.427 39.4537 113.01 39.6152 113.484 39.9329C113.953 40.2558 114.265 40.6777 114.421 41.2037L119.213 59.4329C119.364 60.0162 119.51 60.6517 119.651 61.3287C119.786 62.011 119.932 62.7194 120.088 63.4537C120.364 61.9433 120.713 60.5996 121.13 59.4329L126.796 41.2037C126.947 40.7454 127.26 40.3444 127.734 39.9954C128.203 39.636 128.776 39.4537 129.442 39.4537H131.838C132.546 39.4537 133.114 39.6204 133.546 39.9537C133.973 40.2767 134.302 40.6933 134.526 41.2037L140.151 59.4329C140.567 60.5579 140.911 61.8287 141.192 63.2454C141.328 62.5267 141.463 61.8496 141.588 61.2246C141.723 60.5892 141.869 59.9902 142.026 59.4329L146.817 41.2037C146.942 40.735 147.239 40.3235 147.713 39.9746C148.197 39.6308 148.781 39.4537 149.463 39.4537H155.838Z" fill="url(#paint10_linear_1007_12147)"/>
<path d="M155.838 39.4537L145.046 74.4121H137.692L131.13 52.7454C130.989 52.4121 130.864 52.0475 130.755 51.6412C130.64 51.2246 130.531 50.7975 130.421 50.3496C130.307 50.7975 130.197 51.2246 130.088 51.6412C129.973 52.0475 129.859 52.4121 129.734 52.7454L123.067 74.4121H115.713L104.921 39.4537H111.734C112.427 39.4537 113.01 39.6152 113.484 39.9329C113.953 40.2558 114.265 40.6777 114.421 41.2037L119.213 59.4329C119.364 60.0162 119.51 60.6517 119.651 61.3287C119.786 62.011 119.932 62.7194 120.088 63.4537C120.364 61.9433 120.713 60.5996 121.13 59.4329L126.796 41.2037C126.947 40.7454 127.26 40.3444 127.734 39.9954C128.203 39.636 128.776 39.4537 129.442 39.4537H131.838C132.546 39.4537 133.114 39.6204 133.546 39.9537C133.973 40.2767 134.302 40.6933 134.526 41.2037L140.151 59.4329C140.567 60.5579 140.911 61.8287 141.192 63.2454C141.328 62.5267 141.463 61.8496 141.588 61.2246C141.723 60.5892 141.869 59.9902 142.026 59.4329L146.817 41.2037C146.942 40.735 147.239 40.3235 147.713 39.9746C148.197 39.6308 148.781 39.4537 149.463 39.4537H155.838Z" fill="url(#paint11_linear_1007_12147)"/>
<path d="M169.921 49.1412C171.806 49.1412 173.525 49.4433 175.067 50.0371C176.619 50.6204 177.952 51.4694 179.067 52.5787C180.176 53.6777 181.035 55.0162 181.65 56.5996C182.275 58.1725 182.587 59.9433 182.587 61.9121C182.587 63.9017 182.275 65.6933 181.65 67.2871C181.035 68.8704 180.176 70.2194 179.067 71.3287C177.952 72.4433 176.619 73.2975 175.067 73.8912C173.525 74.485 171.806 74.7871 169.921 74.7871C168.014 74.7871 166.28 74.485 164.712 73.8912C163.155 73.2975 161.806 72.4433 160.671 71.3287C159.546 70.2194 158.676 68.8704 158.067 67.2871C157.452 65.6933 157.15 63.9017 157.15 61.9121C157.15 59.9433 157.452 58.1725 158.067 56.5996C158.676 55.0162 159.546 53.6777 160.671 52.5787C161.806 51.4694 163.155 50.6204 164.712 50.0371C166.28 49.4433 168.014 49.1412 169.921 49.1412ZM169.921 69.2662C171.629 69.2662 172.884 68.6725 173.692 67.4746C174.494 66.2662 174.9 64.4277 174.9 61.9537C174.9 59.4954 174.494 57.6725 173.692 56.4746C172.884 55.2662 171.629 54.6621 169.921 54.6621C168.155 54.6621 166.863 55.2662 166.046 56.4746C165.223 57.6725 164.817 59.4954 164.817 61.9537C164.817 64.4277 165.223 66.2662 166.046 67.4746C166.863 68.6725 168.155 69.2662 169.921 69.2662Z" fill="#91D4AF"/>
<path d="M169.921 49.1412C171.806 49.1412 173.525 49.4433 175.067 50.0371C176.619 50.6204 177.952 51.4694 179.067 52.5787C180.176 53.6777 181.035 55.0162 181.65 56.5996C182.275 58.1725 182.587 59.9433 182.587 61.9121C182.587 63.9017 182.275 65.6933 181.65 67.2871C181.035 68.8704 180.176 70.2194 179.067 71.3287C177.952 72.4433 176.619 73.2975 175.067 73.8912C173.525 74.485 171.806 74.7871 169.921 74.7871C168.014 74.7871 166.28 74.485 164.712 73.8912C163.155 73.2975 161.806 72.4433 160.671 71.3287C159.546 70.2194 158.676 68.8704 158.067 67.2871C157.452 65.6933 157.15 63.9017 157.15 61.9121C157.15 59.9433 157.452 58.1725 158.067 56.5996C158.676 55.0162 159.546 53.6777 160.671 52.5787C161.806 51.4694 163.155 50.6204 164.712 50.0371C166.28 49.4433 168.014 49.1412 169.921 49.1412ZM169.921 69.2662C171.629 69.2662 172.884 68.6725 173.692 67.4746C174.494 66.2662 174.9 64.4277 174.9 61.9537C174.9 59.4954 174.494 57.6725 173.692 56.4746C172.884 55.2662 171.629 54.6621 169.921 54.6621C168.155 54.6621 166.863 55.2662 166.046 56.4746C165.223 57.6725 164.817 59.4954 164.817 61.9537C164.817 64.4277 165.223 66.2662 166.046 67.4746C166.863 68.6725 168.155 69.2662 169.921 69.2662Z" fill="url(#paint12_linear_1007_12147)"/>
<path d="M169.921 49.1412C171.806 49.1412 173.525 49.4433 175.067 50.0371C176.619 50.6204 177.952 51.4694 179.067 52.5787C180.176 53.6777 181.035 55.0162 181.65 56.5996C182.275 58.1725 182.587 59.9433 182.587 61.9121C182.587 63.9017 182.275 65.6933 181.65 67.2871C181.035 68.8704 180.176 70.2194 179.067 71.3287C177.952 72.4433 176.619 73.2975 175.067 73.8912C173.525 74.485 171.806 74.7871 169.921 74.7871C168.014 74.7871 166.28 74.485 164.712 73.8912C163.155 73.2975 161.806 72.4433 160.671 71.3287C159.546 70.2194 158.676 68.8704 158.067 67.2871C157.452 65.6933 157.15 63.9017 157.15 61.9121C157.15 59.9433 157.452 58.1725 158.067 56.5996C158.676 55.0162 159.546 53.6777 160.671 52.5787C161.806 51.4694 163.155 50.6204 164.712 50.0371C166.28 49.4433 168.014 49.1412 169.921 49.1412ZM169.921 69.2662C171.629 69.2662 172.884 68.6725 173.692 67.4746C174.494 66.2662 174.9 64.4277 174.9 61.9537C174.9 59.4954 174.494 57.6725 173.692 56.4746C172.884 55.2662 171.629 54.6621 169.921 54.6621C168.155 54.6621 166.863 55.2662 166.046 56.4746C165.223 57.6725 164.817 59.4954 164.817 61.9537C164.817 64.4277 165.223 66.2662 166.046 67.4746C166.863 68.6725 168.155 69.2662 169.921 69.2662Z" fill="url(#paint13_linear_1007_12147)"/>
<path d="M169.921 49.1412C171.806 49.1412 173.525 49.4433 175.067 50.0371C176.619 50.6204 177.952 51.4694 179.067 52.5787C180.176 53.6777 181.035 55.0162 181.65 56.5996C182.275 58.1725 182.587 59.9433 182.587 61.9121C182.587 63.9017 182.275 65.6933 181.65 67.2871C181.035 68.8704 180.176 70.2194 179.067 71.3287C177.952 72.4433 176.619 73.2975 175.067 73.8912C173.525 74.485 171.806 74.7871 169.921 74.7871C168.014 74.7871 166.28 74.485 164.712 73.8912C163.155 73.2975 161.806 72.4433 160.671 71.3287C159.546 70.2194 158.676 68.8704 158.067 67.2871C157.452 65.6933 157.15 63.9017 157.15 61.9121C157.15 59.9433 157.452 58.1725 158.067 56.5996C158.676 55.0162 159.546 53.6777 160.671 52.5787C161.806 51.4694 163.155 50.6204 164.712 50.0371C166.28 49.4433 168.014 49.1412 169.921 49.1412ZM169.921 69.2662C171.629 69.2662 172.884 68.6725 173.692 67.4746C174.494 66.2662 174.9 64.4277 174.9 61.9537C174.9 59.4954 174.494 57.6725 173.692 56.4746C172.884 55.2662 171.629 54.6621 169.921 54.6621C168.155 54.6621 166.863 55.2662 166.046 56.4746C165.223 57.6725 164.817 59.4954 164.817 61.9537C164.817 64.4277 165.223 66.2662 166.046 67.4746C166.863 68.6725 168.155 69.2662 169.921 69.2662Z" fill="url(#paint14_linear_1007_12147)"/>
<path d="M193.758 38.4746V74.4121H186.321V38.4746H193.758Z" fill="#91D4AF"/>
<path d="M193.758 38.4746V74.4121H186.321V38.4746H193.758Z" fill="url(#paint15_linear_1007_12147)"/>
<path d="M193.758 38.4746V74.4121H186.321V38.4746H193.758Z" fill="url(#paint16_linear_1007_12147)"/>
<path d="M193.758 38.4746V74.4121H186.321V38.4746H193.758Z" fill="url(#paint17_linear_1007_12147)"/>
<path d="M200.651 74.4121V54.6412L199.005 54.3079C198.448 54.1725 197.994 53.9694 197.651 53.7037C197.302 53.4277 197.13 53.0267 197.13 52.4954V49.5787H200.651V48.1621C200.651 46.735 200.869 45.4433 201.317 44.2871C201.776 43.136 202.432 42.1569 203.297 41.3496C204.156 40.5319 205.198 39.9017 206.422 39.4537C207.656 38.9954 209.057 38.7662 210.63 38.7662C211.239 38.7662 211.797 38.8079 212.297 38.8912C212.807 38.9642 213.349 39.0735 213.922 39.2246L213.776 42.8496C213.76 43.1152 213.698 43.3287 213.588 43.4954C213.474 43.6621 213.323 43.8027 213.13 43.9121C212.948 44.011 212.755 44.0892 212.547 44.1412C212.338 44.1829 212.13 44.2037 211.922 44.2037C211.265 44.2037 210.682 44.2662 210.172 44.3912C209.656 44.5162 209.224 44.7454 208.88 45.0787C208.547 45.4017 208.286 45.8287 208.109 46.3704C207.927 46.9017 207.838 47.5735 207.838 48.3912V49.5787H213.672V54.6621H208.088V74.4121H200.651Z" fill="#91D4AF"/>
<path d="M200.651 74.4121V54.6412L199.005 54.3079C198.448 54.1725 197.994 53.9694 197.651 53.7037C197.302 53.4277 197.13 53.0267 197.13 52.4954V49.5787H200.651V48.1621C200.651 46.735 200.869 45.4433 201.317 44.2871C201.776 43.136 202.432 42.1569 203.297 41.3496C204.156 40.5319 205.198 39.9017 206.422 39.4537C207.656 38.9954 209.057 38.7662 210.63 38.7662C211.239 38.7662 211.797 38.8079 212.297 38.8912C212.807 38.9642 213.349 39.0735 213.922 39.2246L213.776 42.8496C213.76 43.1152 213.698 43.3287 213.588 43.4954C213.474 43.6621 213.323 43.8027 213.13 43.9121C212.948 44.011 212.755 44.0892 212.547 44.1412C212.338 44.1829 212.13 44.2037 211.922 44.2037C211.265 44.2037 210.682 44.2662 210.172 44.3912C209.656 44.5162 209.224 44.7454 208.88 45.0787C208.547 45.4017 208.286 45.8287 208.109 46.3704C207.927 46.9017 207.838 47.5735 207.838 48.3912V49.5787H213.672V54.6621H208.088V74.4121H200.651Z" fill="url(#paint18_linear_1007_12147)"/>
<path d="M200.651 74.4121V54.6412L199.005 54.3079C198.448 54.1725 197.994 53.9694 197.651 53.7037C197.302 53.4277 197.13 53.0267 197.13 52.4954V49.5787H200.651V48.1621C200.651 46.735 200.869 45.4433 201.317 44.2871C201.776 43.136 202.432 42.1569 203.297 41.3496C204.156 40.5319 205.198 39.9017 206.422 39.4537C207.656 38.9954 209.057 38.7662 210.63 38.7662C211.239 38.7662 211.797 38.8079 212.297 38.8912C212.807 38.9642 213.349 39.0735 213.922 39.2246L213.776 42.8496C213.76 43.1152 213.698 43.3287 213.588 43.4954C213.474 43.6621 213.323 43.8027 213.13 43.9121C212.948 44.011 212.755 44.0892 212.547 44.1412C212.338 44.1829 212.13 44.2037 211.922 44.2037C211.265 44.2037 210.682 44.2662 210.172 44.3912C209.656 44.5162 209.224 44.7454 208.88 45.0787C208.547 45.4017 208.286 45.8287 208.109 46.3704C207.927 46.9017 207.838 47.5735 207.838 48.3912V49.5787H213.672V54.6621H208.088V74.4121H200.651Z" fill="url(#paint19_linear_1007_12147)"/>
<path d="M200.651 74.4121V54.6412L199.005 54.3079C198.448 54.1725 197.994 53.9694 197.651 53.7037C197.302 53.4277 197.13 53.0267 197.13 52.4954V49.5787H200.651V48.1621C200.651 46.735 200.869 45.4433 201.317 44.2871C201.776 43.136 202.432 42.1569 203.297 41.3496C204.156 40.5319 205.198 39.9017 206.422 39.4537C207.656 38.9954 209.057 38.7662 210.63 38.7662C211.239 38.7662 211.797 38.8079 212.297 38.8912C212.807 38.9642 213.349 39.0735 213.922 39.2246L213.776 42.8496C213.76 43.1152 213.698 43.3287 213.588 43.4954C213.474 43.6621 213.323 43.8027 213.13 43.9121C212.948 44.011 212.755 44.0892 212.547 44.1412C212.338 44.1829 212.13 44.2037 211.922 44.2037C211.265 44.2037 210.682 44.2662 210.172 44.3912C209.656 44.5162 209.224 44.7454 208.88 45.0787C208.547 45.4017 208.286 45.8287 208.109 46.3704C207.927 46.9017 207.838 47.5735 207.838 48.3912V49.5787H213.672V54.6621H208.088V74.4121H200.651Z" fill="url(#paint20_linear_1007_12147)"/>
<path d="M231.046 68.2871C232.114 68.2871 232.989 68.1569 233.671 67.8912C234.349 67.6152 234.88 67.261 235.255 66.8287C235.64 66.4017 235.906 65.9121 236.046 65.3704C236.198 64.8287 236.276 64.2767 236.276 63.7037C236.276 63.0683 236.192 62.4902 236.026 61.9746C235.859 61.4642 235.567 61.0319 235.151 60.6829C234.744 60.3392 234.203 60.0683 233.526 59.8704C232.859 59.6777 232.015 59.5787 231.005 59.5787H225.338V68.2871H231.046ZM225.338 45.5162V54.1621H229.567C230.453 54.1621 231.26 54.0996 231.984 53.9746C232.703 53.8392 233.317 53.61 233.817 53.2871C234.317 52.9694 234.698 52.5319 234.963 51.9746C235.224 51.4225 235.359 50.7194 235.359 49.8704C235.359 49.0371 235.255 48.3444 235.046 47.7871C234.838 47.235 234.515 46.7871 234.088 46.4537C233.656 46.1204 233.109 45.886 232.442 45.7454C231.786 45.5944 231.005 45.5162 230.088 45.5162H225.338ZM230.088 39.4537C232.505 39.4537 234.557 39.6777 236.255 40.1204C237.948 40.5683 239.328 41.1985 240.401 42.0162C241.468 42.8392 242.244 43.8287 242.734 44.9954C243.234 46.1621 243.484 47.4642 243.484 48.8912C243.484 49.6829 243.364 50.4485 243.13 51.1829C242.906 51.9069 242.552 52.5892 242.067 53.2246C241.593 53.8496 240.984 54.4277 240.234 54.9537C239.484 55.485 238.578 55.9329 237.526 56.3079C239.828 56.8808 241.531 57.7871 242.63 59.0371C243.739 60.2767 244.296 61.886 244.296 63.8704C244.296 65.36 244.005 66.7454 243.421 68.0371C242.849 69.3183 242.01 70.4329 240.901 71.3912C239.786 72.3392 238.411 73.0787 236.776 73.6204C235.151 74.1517 233.286 74.4121 231.192 74.4121H217.213V39.4537H230.088Z" fill="#91D4AF"/>
<path d="M231.046 68.2871C232.114 68.2871 232.989 68.1569 233.671 67.8912C234.349 67.6152 234.88 67.261 235.255 66.8287C235.64 66.4017 235.906 65.9121 236.046 65.3704C236.198 64.8287 236.276 64.2767 236.276 63.7037C236.276 63.0683 236.192 62.4902 236.026 61.9746C235.859 61.4642 235.567 61.0319 235.151 60.6829C234.744 60.3392 234.203 60.0683 233.526 59.8704C232.859 59.6777 232.015 59.5787 231.005 59.5787H225.338V68.2871H231.046ZM225.338 45.5162V54.1621H229.567C230.453 54.1621 231.26 54.0996 231.984 53.9746C232.703 53.8392 233.317 53.61 233.817 53.2871C234.317 52.9694 234.698 52.5319 234.963 51.9746C235.224 51.4225 235.359 50.7194 235.359 49.8704C235.359 49.0371 235.255 48.3444 235.046 47.7871C234.838 47.235 234.515 46.7871 234.088 46.4537C233.656 46.1204 233.109 45.886 232.442 45.7454C231.786 45.5944 231.005 45.5162 230.088 45.5162H225.338ZM230.088 39.4537C232.505 39.4537 234.557 39.6777 236.255 40.1204C237.948 40.5683 239.328 41.1985 240.401 42.0162C241.468 42.8392 242.244 43.8287 242.734 44.9954C243.234 46.1621 243.484 47.4642 243.484 48.8912C243.484 49.6829 243.364 50.4485 243.13 51.1829C242.906 51.9069 242.552 52.5892 242.067 53.2246C241.593 53.8496 240.984 54.4277 240.234 54.9537C239.484 55.485 238.578 55.9329 237.526 56.3079C239.828 56.8808 241.531 57.7871 242.63 59.0371C243.739 60.2767 244.296 61.886 244.296 63.8704C244.296 65.36 244.005 66.7454 243.421 68.0371C242.849 69.3183 242.01 70.4329 240.901 71.3912C239.786 72.3392 238.411 73.0787 236.776 73.6204C235.151 74.1517 233.286 74.4121 231.192 74.4121H217.213V39.4537H230.088Z" fill="url(#paint21_linear_1007_12147)"/>
<path d="M231.046 68.2871C232.114 68.2871 232.989 68.1569 233.671 67.8912C234.349 67.6152 234.88 67.261 235.255 66.8287C235.64 66.4017 235.906 65.9121 236.046 65.3704C236.198 64.8287 236.276 64.2767 236.276 63.7037C236.276 63.0683 236.192 62.4902 236.026 61.9746C235.859 61.4642 235.567 61.0319 235.151 60.6829C234.744 60.3392 234.203 60.0683 233.526 59.8704C232.859 59.6777 232.015 59.5787 231.005 59.5787H225.338V68.2871H231.046ZM225.338 45.5162V54.1621H229.567C230.453 54.1621 231.26 54.0996 231.984 53.9746C232.703 53.8392 233.317 53.61 233.817 53.2871C234.317 52.9694 234.698 52.5319 234.963 51.9746C235.224 51.4225 235.359 50.7194 235.359 49.8704C235.359 49.0371 235.255 48.3444 235.046 47.7871C234.838 47.235 234.515 46.7871 234.088 46.4537C233.656 46.1204 233.109 45.886 232.442 45.7454C231.786 45.5944 231.005 45.5162 230.088 45.5162H225.338ZM230.088 39.4537C232.505 39.4537 234.557 39.6777 236.255 40.1204C237.948 40.5683 239.328 41.1985 240.401 42.0162C241.468 42.8392 242.244 43.8287 242.734 44.9954C243.234 46.1621 243.484 47.4642 243.484 48.8912C243.484 49.6829 243.364 50.4485 243.13 51.1829C242.906 51.9069 242.552 52.5892 242.067 53.2246C241.593 53.8496 240.984 54.4277 240.234 54.9537C239.484 55.485 238.578 55.9329 237.526 56.3079C239.828 56.8808 241.531 57.7871 242.63 59.0371C243.739 60.2767 244.296 61.886 244.296 63.8704C244.296 65.36 244.005 66.7454 243.421 68.0371C242.849 69.3183 242.01 70.4329 240.901 71.3912C239.786 72.3392 238.411 73.0787 236.776 73.6204C235.151 74.1517 233.286 74.4121 231.192 74.4121H217.213V39.4537H230.088Z" fill="url(#paint22_linear_1007_12147)"/>
<path d="M231.046 68.2871C232.114 68.2871 232.989 68.1569 233.671 67.8912C234.349 67.6152 234.88 67.261 235.255 66.8287C235.64 66.4017 235.906 65.9121 236.046 65.3704C236.198 64.8287 236.276 64.2767 236.276 63.7037C236.276 63.0683 236.192 62.4902 236.026 61.9746C235.859 61.4642 235.567 61.0319 235.151 60.6829C234.744 60.3392 234.203 60.0683 233.526 59.8704C232.859 59.6777 232.015 59.5787 231.005 59.5787H225.338V68.2871H231.046ZM225.338 45.5162V54.1621H229.567C230.453 54.1621 231.26 54.0996 231.984 53.9746C232.703 53.8392 233.317 53.61 233.817 53.2871C234.317 52.9694 234.698 52.5319 234.963 51.9746C235.224 51.4225 235.359 50.7194 235.359 49.8704C235.359 49.0371 235.255 48.3444 235.046 47.7871C234.838 47.235 234.515 46.7871 234.088 46.4537C233.656 46.1204 233.109 45.886 232.442 45.7454C231.786 45.5944 231.005 45.5162 230.088 45.5162H225.338ZM230.088 39.4537C232.505 39.4537 234.557 39.6777 236.255 40.1204C237.948 40.5683 239.328 41.1985 240.401 42.0162C241.468 42.8392 242.244 43.8287 242.734 44.9954C243.234 46.1621 243.484 47.4642 243.484 48.8912C243.484 49.6829 243.364 50.4485 243.13 51.1829C242.906 51.9069 242.552 52.5892 242.067 53.2246C241.593 53.8496 240.984 54.4277 240.234 54.9537C239.484 55.485 238.578 55.9329 237.526 56.3079C239.828 56.8808 241.531 57.7871 242.63 59.0371C243.739 60.2767 244.296 61.886 244.296 63.8704C244.296 65.36 244.005 66.7454 243.421 68.0371C242.849 69.3183 242.01 70.4329 240.901 71.3912C239.786 72.3392 238.411 73.0787 236.776 73.6204C235.151 74.1517 233.286 74.4121 231.192 74.4121H217.213V39.4537H230.088Z" fill="url(#paint23_linear_1007_12147)"/>
<path d="M263.964 58.9746C263.964 58.3912 263.886 57.8235 263.735 57.2662C263.578 56.6985 263.328 56.1985 262.985 55.7662C262.651 55.3235 262.198 54.9642 261.63 54.6829C261.073 54.4069 260.391 54.2662 259.589 54.2662C258.183 54.2662 257.078 54.6777 256.276 55.4954C255.485 56.3027 254.953 57.4642 254.693 58.9746H263.964ZM254.61 63.3079C254.844 65.3808 255.469 66.886 256.485 67.8287C257.511 68.761 258.839 69.2246 260.464 69.2246C261.323 69.2246 262.068 69.1204 262.693 68.9121C263.318 68.7037 263.87 68.4746 264.36 68.2246C264.844 67.9642 265.287 67.7246 265.693 67.5162C266.11 67.3079 266.537 67.2037 266.985 67.2037C267.578 67.2037 268.031 67.4277 268.339 67.8704L270.485 70.5162C269.719 71.4069 268.891 72.1308 268.005 72.6829C267.115 73.2246 266.198 73.6569 265.255 73.9746C264.323 74.2819 263.391 74.485 262.464 74.5996C261.531 74.7246 260.641 74.7871 259.797 74.7871C258.047 74.7871 256.406 74.5058 254.88 73.9537C253.349 73.386 252.011 72.5371 250.86 71.4121C249.719 70.2871 248.818 68.9017 248.151 67.2454C247.495 65.5787 247.172 63.6412 247.172 61.4329C247.172 59.7662 247.448 58.1933 248.005 56.7037C248.573 55.2194 249.391 53.9121 250.464 52.7871C251.531 51.6621 252.818 50.7767 254.318 50.1204C255.828 49.4694 257.537 49.1412 259.443 49.1412C261.094 49.1412 262.599 49.4017 263.964 49.9121C265.339 50.4277 266.516 51.1725 267.505 52.1412C268.49 53.1152 269.255 54.3079 269.797 55.7246C270.349 57.1412 270.63 58.7454 270.63 60.5371C270.63 61.0944 270.599 61.5527 270.547 61.9121C270.505 62.261 270.422 62.5371 270.297 62.7454C270.172 62.9537 269.995 63.0996 269.776 63.1829C269.568 63.2662 269.297 63.3079 268.964 63.3079H254.61Z" fill="#91D4AF"/>
<path d="M263.964 58.9746C263.964 58.3912 263.886 57.8235 263.735 57.2662C263.578 56.6985 263.328 56.1985 262.985 55.7662C262.651 55.3235 262.198 54.9642 261.63 54.6829C261.073 54.4069 260.391 54.2662 259.589 54.2662C258.183 54.2662 257.078 54.6777 256.276 55.4954C255.485 56.3027 254.953 57.4642 254.693 58.9746H263.964ZM254.61 63.3079C254.844 65.3808 255.469 66.886 256.485 67.8287C257.511 68.761 258.839 69.2246 260.464 69.2246C261.323 69.2246 262.068 69.1204 262.693 68.9121C263.318 68.7037 263.87 68.4746 264.36 68.2246C264.844 67.9642 265.287 67.7246 265.693 67.5162C266.11 67.3079 266.537 67.2037 266.985 67.2037C267.578 67.2037 268.031 67.4277 268.339 67.8704L270.485 70.5162C269.719 71.4069 268.891 72.1308 268.005 72.6829C267.115 73.2246 266.198 73.6569 265.255 73.9746C264.323 74.2819 263.391 74.485 262.464 74.5996C261.531 74.7246 260.641 74.7871 259.797 74.7871C258.047 74.7871 256.406 74.5058 254.88 73.9537C253.349 73.386 252.011 72.5371 250.86 71.4121C249.719 70.2871 248.818 68.9017 248.151 67.2454C247.495 65.5787 247.172 63.6412 247.172 61.4329C247.172 59.7662 247.448 58.1933 248.005 56.7037C248.573 55.2194 249.391 53.9121 250.464 52.7871C251.531 51.6621 252.818 50.7767 254.318 50.1204C255.828 49.4694 257.537 49.1412 259.443 49.1412C261.094 49.1412 262.599 49.4017 263.964 49.9121C265.339 50.4277 266.516 51.1725 267.505 52.1412C268.49 53.1152 269.255 54.3079 269.797 55.7246C270.349 57.1412 270.63 58.7454 270.63 60.5371C270.63 61.0944 270.599 61.5527 270.547 61.9121C270.505 62.261 270.422 62.5371 270.297 62.7454C270.172 62.9537 269.995 63.0996 269.776 63.1829C269.568 63.2662 269.297 63.3079 268.964 63.3079H254.61Z" fill="url(#paint24_linear_1007_12147)"/>
<path d="M263.964 58.9746C263.964 58.3912 263.886 57.8235 263.735 57.2662C263.578 56.6985 263.328 56.1985 262.985 55.7662C262.651 55.3235 262.198 54.9642 261.63 54.6829C261.073 54.4069 260.391 54.2662 259.589 54.2662C258.183 54.2662 257.078 54.6777 256.276 55.4954C255.485 56.3027 254.953 57.4642 254.693 58.9746H263.964ZM254.61 63.3079C254.844 65.3808 255.469 66.886 256.485 67.8287C257.511 68.761 258.839 69.2246 260.464 69.2246C261.323 69.2246 262.068 69.1204 262.693 68.9121C263.318 68.7037 263.87 68.4746 264.36 68.2246C264.844 67.9642 265.287 67.7246 265.693 67.5162C266.11 67.3079 266.537 67.2037 266.985 67.2037C267.578 67.2037 268.031 67.4277 268.339 67.8704L270.485 70.5162C269.719 71.4069 268.891 72.1308 268.005 72.6829C267.115 73.2246 266.198 73.6569 265.255 73.9746C264.323 74.2819 263.391 74.485 262.464 74.5996C261.531 74.7246 260.641 74.7871 259.797 74.7871C258.047 74.7871 256.406 74.5058 254.88 73.9537C253.349 73.386 252.011 72.5371 250.86 71.4121C249.719 70.2871 248.818 68.9017 248.151 67.2454C247.495 65.5787 247.172 63.6412 247.172 61.4329C247.172 59.7662 247.448 58.1933 248.005 56.7037C248.573 55.2194 249.391 53.9121 250.464 52.7871C251.531 51.6621 252.818 50.7767 254.318 50.1204C255.828 49.4694 257.537 49.1412 259.443 49.1412C261.094 49.1412 262.599 49.4017 263.964 49.9121C265.339 50.4277 266.516 51.1725 267.505 52.1412C268.49 53.1152 269.255 54.3079 269.797 55.7246C270.349 57.1412 270.63 58.7454 270.63 60.5371C270.63 61.0944 270.599 61.5527 270.547 61.9121C270.505 62.261 270.422 62.5371 270.297 62.7454C270.172 62.9537 269.995 63.0996 269.776 63.1829C269.568 63.2662 269.297 63.3079 268.964 63.3079H254.61Z" fill="url(#paint25_linear_1007_12147)"/>
<path d="M263.964 58.9746C263.964 58.3912 263.886 57.8235 263.735 57.2662C263.578 56.6985 263.328 56.1985 262.985 55.7662C262.651 55.3235 262.198 54.9642 261.63 54.6829C261.073 54.4069 260.391 54.2662 259.589 54.2662C258.183 54.2662 257.078 54.6777 256.276 55.4954C255.485 56.3027 254.953 57.4642 254.693 58.9746H263.964ZM254.61 63.3079C254.844 65.3808 255.469 66.886 256.485 67.8287C257.511 68.761 258.839 69.2246 260.464 69.2246C261.323 69.2246 262.068 69.1204 262.693 68.9121C263.318 68.7037 263.87 68.4746 264.36 68.2246C264.844 67.9642 265.287 67.7246 265.693 67.5162C266.11 67.3079 266.537 67.2037 266.985 67.2037C267.578 67.2037 268.031 67.4277 268.339 67.8704L270.485 70.5162C269.719 71.4069 268.891 72.1308 268.005 72.6829C267.115 73.2246 266.198 73.6569 265.255 73.9746C264.323 74.2819 263.391 74.485 262.464 74.5996C261.531 74.7246 260.641 74.7871 259.797 74.7871C258.047 74.7871 256.406 74.5058 254.88 73.9537C253.349 73.386 252.011 72.5371 250.86 71.4121C249.719 70.2871 248.818 68.9017 248.151 67.2454C247.495 65.5787 247.172 63.6412 247.172 61.4329C247.172 59.7662 247.448 58.1933 248.005 56.7037C248.573 55.2194 249.391 53.9121 250.464 52.7871C251.531 51.6621 252.818 50.7767 254.318 50.1204C255.828 49.4694 257.537 49.1412 259.443 49.1412C261.094 49.1412 262.599 49.4017 263.964 49.9121C265.339 50.4277 266.516 51.1725 267.505 52.1412C268.49 53.1152 269.255 54.3079 269.797 55.7246C270.349 57.1412 270.63 58.7454 270.63 60.5371C270.63 61.0944 270.599 61.5527 270.547 61.9121C270.505 62.261 270.422 62.5371 270.297 62.7454C270.172 62.9537 269.995 63.0996 269.776 63.1829C269.568 63.2662 269.297 63.3079 268.964 63.3079H254.61Z" fill="url(#paint26_linear_1007_12147)"/>
<path d="M283.244 74.787C282.062 74.787 281.02 74.6204 280.119 74.287C279.213 73.9433 278.452 73.4537 277.827 72.8287C277.213 72.1933 276.749 71.4277 276.432 70.537C276.109 69.636 275.952 68.6308 275.952 67.5162V54.662H273.848C273.458 54.662 273.124 54.537 272.848 54.287C272.583 54.037 272.452 53.6777 272.452 53.2037V50.287L276.411 49.5162L277.869 43.4537C278.062 42.6933 278.609 42.3079 279.515 42.3079H283.39V49.5787H289.557V54.662H283.39V67.0162C283.39 67.5995 283.525 68.0787 283.807 68.4537C284.098 68.8287 284.504 69.0162 285.036 69.0162C285.296 69.0162 285.52 68.9902 285.702 68.9329C285.895 68.8808 286.057 68.8183 286.182 68.7454C286.317 68.662 286.452 68.5943 286.577 68.537C286.702 68.4849 286.838 68.4537 286.994 68.4537C287.213 68.4537 287.395 68.511 287.536 68.6204C287.671 68.7193 287.812 68.8808 287.952 69.0995L290.202 72.6412C289.244 73.3652 288.166 73.9068 286.973 74.2662C285.775 74.6099 284.536 74.787 283.244 74.787Z" fill="#91D4AF"/>
<path d="M283.244 74.787C282.062 74.787 281.02 74.6204 280.119 74.287C279.213 73.9433 278.452 73.4537 277.827 72.8287C277.213 72.1933 276.749 71.4277 276.432 70.537C276.109 69.636 275.952 68.6308 275.952 67.5162V54.662H273.848C273.458 54.662 273.124 54.537 272.848 54.287C272.583 54.037 272.452 53.6777 272.452 53.2037V50.287L276.411 49.5162L277.869 43.4537C278.062 42.6933 278.609 42.3079 279.515 42.3079H283.39V49.5787H289.557V54.662H283.39V67.0162C283.39 67.5995 283.525 68.0787 283.807 68.4537C284.098 68.8287 284.504 69.0162 285.036 69.0162C285.296 69.0162 285.52 68.9902 285.702 68.9329C285.895 68.8808 286.057 68.8183 286.182 68.7454C286.317 68.662 286.452 68.5943 286.577 68.537C286.702 68.4849 286.838 68.4537 286.994 68.4537C287.213 68.4537 287.395 68.511 287.536 68.6204C287.671 68.7193 287.812 68.8808 287.952 69.0995L290.202 72.6412C289.244 73.3652 288.166 73.9068 286.973 74.2662C285.775 74.6099 284.536 74.787 283.244 74.787Z" fill="url(#paint27_linear_1007_12147)"/>
<path d="M283.244 74.787C282.062 74.787 281.02 74.6204 280.119 74.287C279.213 73.9433 278.452 73.4537 277.827 72.8287C277.213 72.1933 276.749 71.4277 276.432 70.537C276.109 69.636 275.952 68.6308 275.952 67.5162V54.662H273.848C273.458 54.662 273.124 54.537 272.848 54.287C272.583 54.037 272.452 53.6777 272.452 53.2037V50.287L276.411 49.5162L277.869 43.4537C278.062 42.6933 278.609 42.3079 279.515 42.3079H283.39V49.5787H289.557V54.662H283.39V67.0162C283.39 67.5995 283.525 68.0787 283.807 68.4537C284.098 68.8287 284.504 69.0162 285.036 69.0162C285.296 69.0162 285.52 68.9902 285.702 68.9329C285.895 68.8808 286.057 68.8183 286.182 68.7454C286.317 68.662 286.452 68.5943 286.577 68.537C286.702 68.4849 286.838 68.4537 286.994 68.4537C287.213 68.4537 287.395 68.511 287.536 68.6204C287.671 68.7193 287.812 68.8808 287.952 69.0995L290.202 72.6412C289.244 73.3652 288.166 73.9068 286.973 74.2662C285.775 74.6099 284.536 74.787 283.244 74.787Z" fill="url(#paint28_linear_1007_12147)"/>
<path d="M283.244 74.787C282.062 74.787 281.02 74.6204 280.119 74.287C279.213 73.9433 278.452 73.4537 277.827 72.8287C277.213 72.1933 276.749 71.4277 276.432 70.537C276.109 69.636 275.952 68.6308 275.952 67.5162V54.662H273.848C273.458 54.662 273.124 54.537 272.848 54.287C272.583 54.037 272.452 53.6777 272.452 53.2037V50.287L276.411 49.5162L277.869 43.4537C278.062 42.6933 278.609 42.3079 279.515 42.3079H283.39V49.5787H289.557V54.662H283.39V67.0162C283.39 67.5995 283.525 68.0787 283.807 68.4537C284.098 68.8287 284.504 69.0162 285.036 69.0162C285.296 69.0162 285.52 68.9902 285.702 68.9329C285.895 68.8808 286.057 68.8183 286.182 68.7454C286.317 68.662 286.452 68.5943 286.577 68.537C286.702 68.4849 286.838 68.4537 286.994 68.4537C287.213 68.4537 287.395 68.511 287.536 68.6204C287.671 68.7193 287.812 68.8808 287.952 69.0995L290.202 72.6412C289.244 73.3652 288.166 73.9068 286.973 74.2662C285.775 74.6099 284.536 74.787 283.244 74.787Z" fill="url(#paint29_linear_1007_12147)"/>
<defs>
<linearGradient id="paint0_linear_1007_12147" x1="290.135" y1="55.9121" x2="107" y2="56" gradientUnits="userSpaceOnUse">
<stop stop-color="#D8F3DC"/>
<stop offset="1" stop-color="#D8F3DC" stop-opacity="0"/>
</linearGradient>
<linearGradient id="paint1_linear_1007_12147" x1="185.5" y1="56" x2="290" y2="56" gradientUnits="userSpaceOnUse">
<stop stop-color="#91D4AF"/>
<stop offset="1" stop-color="#91D4AF" stop-opacity="0"/>
</linearGradient>
<linearGradient id="paint2_linear_1007_12147" x1="0.135498" y1="55.9121" x2="290.136" y2="55.9121" gradientUnits="userSpaceOnUse">
<stop offset="0.0668698" stop-color="#002C42"/>
<stop offset="0.501538" stop-color="#002C42" stop-opacity="0"/>
</linearGradient>
<linearGradient id="paint3_linear_1007_12147" x1="290.135" y1="55.9121" x2="107" y2="56" gradientUnits="userSpaceOnUse">
<stop stop-color="#D8F3DC"/>
<stop offset="1" stop-color="#D8F3DC" stop-opacity="0"/>
</linearGradient>
<linearGradient id="paint4_linear_1007_12147" x1="185.5" y1="56" x2="290" y2="56" gradientUnits="userSpaceOnUse">
<stop stop-color="#91D4AF"/>
<stop offset="1" stop-color="#91D4AF" stop-opacity="0"/>
</linearGradient>
<linearGradient id="paint5_linear_1007_12147" x1="0.135498" y1="55.9121" x2="290.136" y2="55.9121" gradientUnits="userSpaceOnUse">
<stop offset="0.0668698" stop-color="#002C42"/>
<stop offset="0.501538" stop-color="#002C42" stop-opacity="0"/>
</linearGradient>
<linearGradient id="paint6_linear_1007_12147" x1="290.135" y1="55.9121" x2="107" y2="56" gradientUnits="userSpaceOnUse">
<stop stop-color="#D8F3DC"/>
<stop offset="1" stop-color="#D8F3DC" stop-opacity="0"/>
</linearGradient>
<linearGradient id="paint7_linear_1007_12147" x1="185.5" y1="56" x2="290" y2="56" gradientUnits="userSpaceOnUse">
<stop stop-color="#91D4AF"/>
<stop offset="1" stop-color="#91D4AF" stop-opacity="0"/>
</linearGradient>
<linearGradient id="paint8_linear_1007_12147" x1="0.135498" y1="55.9121" x2="290.136" y2="55.9121" gradientUnits="userSpaceOnUse">
<stop offset="0.0668698" stop-color="#002C42"/>
<stop offset="0.501538" stop-color="#002C42" stop-opacity="0"/>
</linearGradient>
<linearGradient id="paint9_linear_1007_12147" x1="290.135" y1="55.9121" x2="107" y2="56" gradientUnits="userSpaceOnUse">
<stop stop-color="#D8F3DC"/>
<stop offset="1" stop-color="#D8F3DC" stop-opacity="0"/>
</linearGradient>
<linearGradient id="paint10_linear_1007_12147" x1="185.5" y1="56" x2="290" y2="56" gradientUnits="userSpaceOnUse">
<stop stop-color="#91D4AF"/>
<stop offset="1" stop-color="#91D4AF" stop-opacity="0"/>
</linearGradient>
<linearGradient id="paint11_linear_1007_12147" x1="0.135498" y1="55.9121" x2="290.136" y2="55.9121" gradientUnits="userSpaceOnUse">
<stop offset="0.0668698" stop-color="#002C42"/>
<stop offset="0.501538" stop-color="#002C42" stop-opacity="0"/>
</linearGradient>
<linearGradient id="paint12_linear_1007_12147" x1="290.135" y1="55.9121" x2="107" y2="56" gradientUnits="userSpaceOnUse">
<stop stop-color="#D8F3DC"/>
<stop offset="1" stop-color="#D8F3DC" stop-opacity="0"/>
</linearGradient>
<linearGradient id="paint13_linear_1007_12147" x1="185.5" y1="56" x2="290" y2="56" gradientUnits="userSpaceOnUse">
<stop stop-color="#91D4AF"/>
<stop offset="1" stop-color="#91D4AF" stop-opacity="0"/>
</linearGradient>
<linearGradient id="paint14_linear_1007_12147" x1="0.135498" y1="55.9121" x2="290.136" y2="55.9121" gradientUnits="userSpaceOnUse">
<stop offset="0.0668698" stop-color="#002C42"/>
<stop offset="0.501538" stop-color="#002C42" stop-opacity="0"/>
</linearGradient>
<linearGradient id="paint15_linear_1007_12147" x1="290.135" y1="55.9121" x2="107" y2="56" gradientUnits="userSpaceOnUse">
<stop stop-color="#D8F3DC"/>
<stop offset="1" stop-color="#D8F3DC" stop-opacity="0"/>
</linearGradient>
<linearGradient id="paint16_linear_1007_12147" x1="185.5" y1="56" x2="290" y2="56" gradientUnits="userSpaceOnUse">
<stop stop-color="#91D4AF"/>
<stop offset="1" stop-color="#91D4AF" stop-opacity="0"/>
</linearGradient>
<linearGradient id="paint17_linear_1007_12147" x1="0.135498" y1="55.9121" x2="290.136" y2="55.9121" gradientUnits="userSpaceOnUse">
<stop offset="0.0668698" stop-color="#002C42"/>
<stop offset="0.501538" stop-color="#002C42" stop-opacity="0"/>
</linearGradient>
<linearGradient id="paint18_linear_1007_12147" x1="290.135" y1="55.9121" x2="107" y2="56" gradientUnits="userSpaceOnUse">
<stop stop-color="#D8F3DC"/>
<stop offset="1" stop-color="#D8F3DC" stop-opacity="0"/>
</linearGradient>
<linearGradient id="paint19_linear_1007_12147" x1="185.5" y1="56" x2="290" y2="56" gradientUnits="userSpaceOnUse">
<stop stop-color="#91D4AF"/>
<stop offset="1" stop-color="#91D4AF" stop-opacity="0"/>
</linearGradient>
<linearGradient id="paint20_linear_1007_12147" x1="0.135498" y1="55.9121" x2="290.136" y2="55.9121" gradientUnits="userSpaceOnUse">
<stop offset="0.0668698" stop-color="#002C42"/>
<stop offset="0.501538" stop-color="#002C42" stop-opacity="0"/>
</linearGradient>
<linearGradient id="paint21_linear_1007_12147" x1="290.135" y1="55.9121" x2="107" y2="56" gradientUnits="userSpaceOnUse">
<stop stop-color="#D8F3DC"/>
<stop offset="1" stop-color="#D8F3DC" stop-opacity="0"/>
</linearGradient>
<linearGradient id="paint22_linear_1007_12147" x1="185.5" y1="56" x2="290" y2="56" gradientUnits="userSpaceOnUse">
<stop stop-color="#91D4AF"/>
<stop offset="1" stop-color="#91D4AF" stop-opacity="0"/>
</linearGradient>
<linearGradient id="paint23_linear_1007_12147" x1="0.135498" y1="55.9121" x2="290.136" y2="55.9121" gradientUnits="userSpaceOnUse">
<stop offset="0.0668698" stop-color="#002C42"/>
<stop offset="0.501538" stop-color="#002C42" stop-opacity="0"/>
</linearGradient>
<linearGradient id="paint24_linear_1007_12147" x1="290.135" y1="55.9121" x2="107" y2="56" gradientUnits="userSpaceOnUse">
<stop stop-color="#D8F3DC"/>
<stop offset="1" stop-color="#D8F3DC" stop-opacity="0"/>
</linearGradient>
<linearGradient id="paint25_linear_1007_12147" x1="185.5" y1="56" x2="290" y2="56" gradientUnits="userSpaceOnUse">
<stop stop-color="#91D4AF"/>
<stop offset="1" stop-color="#91D4AF" stop-opacity="0"/>
</linearGradient>
<linearGradient id="paint26_linear_1007_12147" x1="0.135498" y1="55.9121" x2="290.136" y2="55.9121" gradientUnits="userSpaceOnUse">
<stop offset="0.0668698" stop-color="#002C42"/>
<stop offset="0.501538" stop-color="#002C42" stop-opacity="0"/>
</linearGradient>
<linearGradient id="paint27_linear_1007_12147" x1="290.135" y1="55.9121" x2="107" y2="56" gradientUnits="userSpaceOnUse">
<stop stop-color="#D8F3DC"/>
<stop offset="1" stop-color="#D8F3DC" stop-opacity="0"/>
</linearGradient>
<linearGradient id="paint28_linear_1007_12147" x1="185.5" y1="56" x2="290" y2="56" gradientUnits="userSpaceOnUse">
<stop stop-color="#91D4AF"/>
<stop offset="1" stop-color="#91D4AF" stop-opacity="0"/>
</linearGradient>
<linearGradient id="paint29_linear_1007_12147" x1="0.135498" y1="55.9121" x2="290.136" y2="55.9121" gradientUnits="userSpaceOnUse">
<stop offset="0.0668698" stop-color="#002C42"/>
<stop offset="0.501538" stop-color="#002C42" stop-opacity="0"/>
</linearGradient>
</defs>
</svg>
