<svg width="291" height="110" viewBox="0 0 291 110" fill="none" xmlns="http://www.w3.org/2000/svg">
<path d="M47.0781 16.9427C45.0573 17.5989 43.0313 18.3229 40.9896 19.1145C39.5 16.7083 38.3542 11.526 39.6979 3.49475C41.7188 4.03121 43.8438 4.93746 45.9375 6.07288C45.9948 10.2083 46.6667 14.5937 47.0781 16.9427Z" fill="#91D4AF"/>
<path d="M47.0781 16.9427C45.0573 17.5989 43.0313 18.3229 40.9896 19.1145C39.5 16.7083 38.3542 11.526 39.6979 3.49475C41.7188 4.03121 43.8438 4.93746 45.9375 6.07288C45.9948 10.2083 46.6667 14.5937 47.0781 16.9427Z" fill="url(#paint0_linear_1007_12148)"/>
<path d="M47.0781 16.9427C45.0573 17.5989 43.0313 18.3229 40.9896 19.1145C39.5 16.7083 38.3542 11.526 39.6979 3.49475C41.7188 4.03121 43.8438 4.93746 45.9375 6.07288C45.9948 10.2083 46.6667 14.5937 47.0781 16.9427Z" fill="url(#paint1_linear_1007_12148)"/>
<path d="M47.0781 16.9427C45.0573 17.5989 43.0313 18.3229 40.9896 19.1145C39.5 16.7083 38.3542 11.526 39.6979 3.49475C41.7188 4.03121 43.8438 4.93746 45.9375 6.07288C45.9948 10.2083 46.6667 14.5937 47.0781 16.9427Z" fill="url(#paint2_linear_1007_12148)"/>
<path d="M44.5054 72.2917C48.271 78.0678 49.8908 85.2136 48.9897 92.0521C48.0887 98.8907 44.672 105.37 39.5366 109.979C47.5522 110.073 81.521 100.214 81.521 72.2917C85.396 76.5157 87.6929 82.8125 88.3387 88.5105C93.4845 81.6719 94.5366 73.5053 92.9897 66.5417C92.0627 69.7813 91.6252 73.448 89.2606 76.6302C87.8595 71.0157 83.2085 66.625 77.9429 64.2084C77.9689 71.75 75.172 79.3698 70.5939 85.3594C66.0106 91.349 61.5679 95.1094 54.2814 97.0677C55.8543 87.5157 53.1043 76.4948 44.5054 72.2917Z" fill="#91D4AF"/>
<path d="M44.5054 72.2917C48.271 78.0678 49.8908 85.2136 48.9897 92.0521C48.0887 98.8907 44.672 105.37 39.5366 109.979C47.5522 110.073 81.521 100.214 81.521 72.2917C85.396 76.5157 87.6929 82.8125 88.3387 88.5105C93.4845 81.6719 94.5366 73.5053 92.9897 66.5417C92.0627 69.7813 91.6252 73.448 89.2606 76.6302C87.8595 71.0157 83.2085 66.625 77.9429 64.2084C77.9689 71.75 75.172 79.3698 70.5939 85.3594C66.0106 91.349 61.5679 95.1094 54.2814 97.0677C55.8543 87.5157 53.1043 76.4948 44.5054 72.2917Z" fill="url(#paint3_linear_1007_12148)"/>
<path d="M44.5054 72.2917C48.271 78.0678 49.8908 85.2136 48.9897 92.0521C48.0887 98.8907 44.672 105.37 39.5366 109.979C47.5522 110.073 81.521 100.214 81.521 72.2917C85.396 76.5157 87.6929 82.8125 88.3387 88.5105C93.4845 81.6719 94.5366 73.5053 92.9897 66.5417C92.0627 69.7813 91.6252 73.448 89.2606 76.6302C87.8595 71.0157 83.2085 66.625 77.9429 64.2084C77.9689 71.75 75.172 79.3698 70.5939 85.3594C66.0106 91.349 61.5679 95.1094 54.2814 97.0677C55.8543 87.5157 53.1043 76.4948 44.5054 72.2917Z" fill="url(#paint4_linear_1007_12148)"/>
<path d="M44.5054 72.2917C48.271 78.0678 49.8908 85.2136 48.9897 92.0521C48.0887 98.8907 44.672 105.37 39.5366 109.979C47.5522 110.073 81.521 100.214 81.521 72.2917C85.396 76.5157 87.6929 82.8125 88.3387 88.5105C93.4845 81.6719 94.5366 73.5053 92.9897 66.5417C92.0627 69.7813 91.6252 73.448 89.2606 76.6302C87.8595 71.0157 83.2085 66.625 77.9429 64.2084C77.9689 71.75 75.172 79.3698 70.5939 85.3594C66.0106 91.349 61.5679 95.1094 54.2814 97.0677C55.8543 87.5157 53.1043 76.4948 44.5054 72.2917Z" fill="url(#paint5_linear_1007_12148)"/>
<path d="M62.2032 15.7344C61.1407 15.7448 59.948 15.8385 58.6563 16.0052C57.875 14.5208 56.3073 12.8646 54.974 11.8438C54.5886 13.6927 54.7552 15.1979 55.2032 16.5365C54.6511 16.7656 53.823 16.8021 53.2709 17.0312C51.3698 13.901 51.4584 10.1979 52.0157 6.13021C56.8177 8.01042 60.7344 11.2865 63.0261 15.7292C62.7448 15.7188 62.474 15.7188 62.2032 15.7344ZM36.0625 33.9948C35.849 34.5365 35.599 35.099 35.1302 35.4375C34.6615 35.7708 34.0625 35.8333 33.4896 35.8854C32.0886 36.0104 30.2917 35.6823 28.8907 35.8073C31.3646 33.2813 34.1563 31.0677 37.1771 29.2396C36.9011 30.8854 36.6667 32.4375 36.0625 33.9948ZM105 35.3021C97.3855 24.0104 84.1407 16.7135 70.5209 16.3073C70.6407 16.4479 70.7657 16.5833 70.8907 16.724C70.7709 16.6875 70.6511 16.651 70.5313 16.6146C70.7032 19.1667 70.3907 21.7344 70.3907 21.7344C69.5261 19.0729 67.7605 15.901 67.7605 15.901C64.5677 10.2292 55.948 2.50521 48.4948 0C46.5573 10.4115 49.2761 18.2604 49.2761 18.2604C43.3855 20.0625 37.6459 22.401 32.1094 25.1198C29.7969 26.2604 27.9636 28.1771 26.9219 30.5365C26.2917 31.9583 25.6563 33.3802 25.1094 34.8281C17.6198 38.1615 10.1302 41.4896 2.64066 44.8229C1.40108 45.375 0.010454 46.0833 3.79691e-05 47.6354C-0.00517136 48.5729 0.526079 49.4219 1.33337 49.8958C2.42712 50.5417 3.53129 51.5052 4.81254 51.6406C4.85941 51.7656 4.89066 51.8958 4.95837 52.0052C10.5313 61.3854 15.823 59.1563 17.5417 64.7708C18.1094 66.6406 20.0782 67.4271 22.0261 67.599C23.974 67.7708 25.9271 67.4219 27.8594 67.1354C34.2657 66.1979 40.849 65.974 47.1771 67.3281C53.5105 68.6771 59.599 71.6927 63.9375 76.4948C62.0677 68.1563 53.5209 64.0729 53.5209 64.0729C53.5209 64.0729 57.2813 62.9167 60.2136 63.4531C53.3698 58.4167 34.7761 58.8438 21.8594 61.2917C20.2344 57.1615 13.5938 55.2604 12.8959 50.7083C23.2292 46.4635 42.0469 43.2813 53.1823 44.1875C50.9167 41.4063 38.2605 40.2292 38.2605 40.2292C49.2188 37.4427 74.1667 39.3646 82.4011 44.6198C79.6771 35.9115 68.5209 29.5938 68.5209 29.5938C68.5209 29.5938 89.9219 27.8854 105 35.3021Z" fill="#91D4AF"/>
<path d="M62.2032 15.7344C61.1407 15.7448 59.948 15.8385 58.6563 16.0052C57.875 14.5208 56.3073 12.8646 54.974 11.8438C54.5886 13.6927 54.7552 15.1979 55.2032 16.5365C54.6511 16.7656 53.823 16.8021 53.2709 17.0312C51.3698 13.901 51.4584 10.1979 52.0157 6.13021C56.8177 8.01042 60.7344 11.2865 63.0261 15.7292C62.7448 15.7188 62.474 15.7188 62.2032 15.7344ZM36.0625 33.9948C35.849 34.5365 35.599 35.099 35.1302 35.4375C34.6615 35.7708 34.0625 35.8333 33.4896 35.8854C32.0886 36.0104 30.2917 35.6823 28.8907 35.8073C31.3646 33.2813 34.1563 31.0677 37.1771 29.2396C36.9011 30.8854 36.6667 32.4375 36.0625 33.9948ZM105 35.3021C97.3855 24.0104 84.1407 16.7135 70.5209 16.3073C70.6407 16.4479 70.7657 16.5833 70.8907 16.724C70.7709 16.6875 70.6511 16.651 70.5313 16.6146C70.7032 19.1667 70.3907 21.7344 70.3907 21.7344C69.5261 19.0729 67.7605 15.901 67.7605 15.901C64.5677 10.2292 55.948 2.50521 48.4948 0C46.5573 10.4115 49.2761 18.2604 49.2761 18.2604C43.3855 20.0625 37.6459 22.401 32.1094 25.1198C29.7969 26.2604 27.9636 28.1771 26.9219 30.5365C26.2917 31.9583 25.6563 33.3802 25.1094 34.8281C17.6198 38.1615 10.1302 41.4896 2.64066 44.8229C1.40108 45.375 0.010454 46.0833 3.79691e-05 47.6354C-0.00517136 48.5729 0.526079 49.4219 1.33337 49.8958C2.42712 50.5417 3.53129 51.5052 4.81254 51.6406C4.85941 51.7656 4.89066 51.8958 4.95837 52.0052C10.5313 61.3854 15.823 59.1563 17.5417 64.7708C18.1094 66.6406 20.0782 67.4271 22.0261 67.599C23.974 67.7708 25.9271 67.4219 27.8594 67.1354C34.2657 66.1979 40.849 65.974 47.1771 67.3281C53.5105 68.6771 59.599 71.6927 63.9375 76.4948C62.0677 68.1563 53.5209 64.0729 53.5209 64.0729C53.5209 64.0729 57.2813 62.9167 60.2136 63.4531C53.3698 58.4167 34.7761 58.8438 21.8594 61.2917C20.2344 57.1615 13.5938 55.2604 12.8959 50.7083C23.2292 46.4635 42.0469 43.2813 53.1823 44.1875C50.9167 41.4063 38.2605 40.2292 38.2605 40.2292C49.2188 37.4427 74.1667 39.3646 82.4011 44.6198C79.6771 35.9115 68.5209 29.5938 68.5209 29.5938C68.5209 29.5938 89.9219 27.8854 105 35.3021Z" fill="url(#paint6_linear_1007_12148)"/>
<path d="M62.2032 15.7344C61.1407 15.7448 59.948 15.8385 58.6563 16.0052C57.875 14.5208 56.3073 12.8646 54.974 11.8438C54.5886 13.6927 54.7552 15.1979 55.2032 16.5365C54.6511 16.7656 53.823 16.8021 53.2709 17.0312C51.3698 13.901 51.4584 10.1979 52.0157 6.13021C56.8177 8.01042 60.7344 11.2865 63.0261 15.7292C62.7448 15.7188 62.474 15.7188 62.2032 15.7344ZM36.0625 33.9948C35.849 34.5365 35.599 35.099 35.1302 35.4375C34.6615 35.7708 34.0625 35.8333 33.4896 35.8854C32.0886 36.0104 30.2917 35.6823 28.8907 35.8073C31.3646 33.2813 34.1563 31.0677 37.1771 29.2396C36.9011 30.8854 36.6667 32.4375 36.0625 33.9948ZM105 35.3021C97.3855 24.0104 84.1407 16.7135 70.5209 16.3073C70.6407 16.4479 70.7657 16.5833 70.8907 16.724C70.7709 16.6875 70.6511 16.651 70.5313 16.6146C70.7032 19.1667 70.3907 21.7344 70.3907 21.7344C69.5261 19.0729 67.7605 15.901 67.7605 15.901C64.5677 10.2292 55.948 2.50521 48.4948 0C46.5573 10.4115 49.2761 18.2604 49.2761 18.2604C43.3855 20.0625 37.6459 22.401 32.1094 25.1198C29.7969 26.2604 27.9636 28.1771 26.9219 30.5365C26.2917 31.9583 25.6563 33.3802 25.1094 34.8281C17.6198 38.1615 10.1302 41.4896 2.64066 44.8229C1.40108 45.375 0.010454 46.0833 3.79691e-05 47.6354C-0.00517136 48.5729 0.526079 49.4219 1.33337 49.8958C2.42712 50.5417 3.53129 51.5052 4.81254 51.6406C4.85941 51.7656 4.89066 51.8958 4.95837 52.0052C10.5313 61.3854 15.823 59.1563 17.5417 64.7708C18.1094 66.6406 20.0782 67.4271 22.0261 67.599C23.974 67.7708 25.9271 67.4219 27.8594 67.1354C34.2657 66.1979 40.849 65.974 47.1771 67.3281C53.5105 68.6771 59.599 71.6927 63.9375 76.4948C62.0677 68.1563 53.5209 64.0729 53.5209 64.0729C53.5209 64.0729 57.2813 62.9167 60.2136 63.4531C53.3698 58.4167 34.7761 58.8438 21.8594 61.2917C20.2344 57.1615 13.5938 55.2604 12.8959 50.7083C23.2292 46.4635 42.0469 43.2813 53.1823 44.1875C50.9167 41.4063 38.2605 40.2292 38.2605 40.2292C49.2188 37.4427 74.1667 39.3646 82.4011 44.6198C79.6771 35.9115 68.5209 29.5938 68.5209 29.5938C68.5209 29.5938 89.9219 27.8854 105 35.3021Z" fill="url(#paint7_linear_1007_12148)"/>
<path d="M62.2032 15.7344C61.1407 15.7448 59.948 15.8385 58.6563 16.0052C57.875 14.5208 56.3073 12.8646 54.974 11.8438C54.5886 13.6927 54.7552 15.1979 55.2032 16.5365C54.6511 16.7656 53.823 16.8021 53.2709 17.0312C51.3698 13.901 51.4584 10.1979 52.0157 6.13021C56.8177 8.01042 60.7344 11.2865 63.0261 15.7292C62.7448 15.7188 62.474 15.7188 62.2032 15.7344ZM36.0625 33.9948C35.849 34.5365 35.599 35.099 35.1302 35.4375C34.6615 35.7708 34.0625 35.8333 33.4896 35.8854C32.0886 36.0104 30.2917 35.6823 28.8907 35.8073C31.3646 33.2813 34.1563 31.0677 37.1771 29.2396C36.9011 30.8854 36.6667 32.4375 36.0625 33.9948ZM105 35.3021C97.3855 24.0104 84.1407 16.7135 70.5209 16.3073C70.6407 16.4479 70.7657 16.5833 70.8907 16.724C70.7709 16.6875 70.6511 16.651 70.5313 16.6146C70.7032 19.1667 70.3907 21.7344 70.3907 21.7344C69.5261 19.0729 67.7605 15.901 67.7605 15.901C64.5677 10.2292 55.948 2.50521 48.4948 0C46.5573 10.4115 49.2761 18.2604 49.2761 18.2604C43.3855 20.0625 37.6459 22.401 32.1094 25.1198C29.7969 26.2604 27.9636 28.1771 26.9219 30.5365C26.2917 31.9583 25.6563 33.3802 25.1094 34.8281C17.6198 38.1615 10.1302 41.4896 2.64066 44.8229C1.40108 45.375 0.010454 46.0833 3.79691e-05 47.6354C-0.00517136 48.5729 0.526079 49.4219 1.33337 49.8958C2.42712 50.5417 3.53129 51.5052 4.81254 51.6406C4.85941 51.7656 4.89066 51.8958 4.95837 52.0052C10.5313 61.3854 15.823 59.1563 17.5417 64.7708C18.1094 66.6406 20.0782 67.4271 22.0261 67.599C23.974 67.7708 25.9271 67.4219 27.8594 67.1354C34.2657 66.1979 40.849 65.974 47.1771 67.3281C53.5105 68.6771 59.599 71.6927 63.9375 76.4948C62.0677 68.1563 53.5209 64.0729 53.5209 64.0729C53.5209 64.0729 57.2813 62.9167 60.2136 63.4531C53.3698 58.4167 34.7761 58.8438 21.8594 61.2917C20.2344 57.1615 13.5938 55.2604 12.8959 50.7083C23.2292 46.4635 42.0469 43.2813 53.1823 44.1875C50.9167 41.4063 38.2605 40.2292 38.2605 40.2292C49.2188 37.4427 74.1667 39.3646 82.4011 44.6198C79.6771 35.9115 68.5209 29.5938 68.5209 29.5938C68.5209 29.5938 89.9219 27.8854 105 35.3021Z" fill="url(#paint8_linear_1007_12148)"/>
<path d="M155.838 38.4739L145.046 73.4322H137.692L131.13 51.7655C130.989 51.4322 130.864 51.0676 130.755 50.6614C130.64 50.2447 130.531 49.8176 130.421 49.3697C130.307 49.8176 130.197 50.2447 130.088 50.6614C129.973 51.0676 129.859 51.4322 129.734 51.7655L123.067 73.4322H115.713L104.921 38.4739H111.734C112.427 38.4739 113.01 38.6353 113.484 38.953C113.953 39.276 114.265 39.6978 114.421 40.2239L119.213 58.453C119.364 59.0364 119.51 59.6718 119.651 60.3489C119.786 61.0312 119.932 61.7395 120.088 62.4739C120.364 60.9635 120.713 59.6197 121.13 58.453L126.796 40.2239C126.947 39.7655 127.26 39.3645 127.734 39.0155C128.203 38.6562 128.776 38.4739 129.442 38.4739H131.838C132.546 38.4739 133.114 38.6405 133.546 38.9739C133.973 39.2968 134.302 39.7135 134.526 40.2239L140.151 58.453C140.567 59.578 140.911 60.8489 141.192 62.2655C141.328 61.5468 141.463 60.8697 141.588 60.2447C141.723 59.6093 141.869 59.0103 142.026 58.453L146.817 40.2239C146.942 39.7551 147.239 39.3437 147.713 38.9947C148.197 38.651 148.781 38.4739 149.463 38.4739H155.838Z" fill="#91D4AF"/>
<path d="M155.838 38.4739L145.046 73.4322H137.692L131.13 51.7655C130.989 51.4322 130.864 51.0676 130.755 50.6614C130.64 50.2447 130.531 49.8176 130.421 49.3697C130.307 49.8176 130.197 50.2447 130.088 50.6614C129.973 51.0676 129.859 51.4322 129.734 51.7655L123.067 73.4322H115.713L104.921 38.4739H111.734C112.427 38.4739 113.01 38.6353 113.484 38.953C113.953 39.276 114.265 39.6978 114.421 40.2239L119.213 58.453C119.364 59.0364 119.51 59.6718 119.651 60.3489C119.786 61.0312 119.932 61.7395 120.088 62.4739C120.364 60.9635 120.713 59.6197 121.13 58.453L126.796 40.2239C126.947 39.7655 127.26 39.3645 127.734 39.0155C128.203 38.6562 128.776 38.4739 129.442 38.4739H131.838C132.546 38.4739 133.114 38.6405 133.546 38.9739C133.973 39.2968 134.302 39.7135 134.526 40.2239L140.151 58.453C140.567 59.578 140.911 60.8489 141.192 62.2655C141.328 61.5468 141.463 60.8697 141.588 60.2447C141.723 59.6093 141.869 59.0103 142.026 58.453L146.817 40.2239C146.942 39.7551 147.239 39.3437 147.713 38.9947C148.197 38.651 148.781 38.4739 149.463 38.4739H155.838Z" fill="url(#paint9_linear_1007_12148)"/>
<path d="M155.838 38.4739L145.046 73.4322H137.692L131.13 51.7655C130.989 51.4322 130.864 51.0676 130.755 50.6614C130.64 50.2447 130.531 49.8176 130.421 49.3697C130.307 49.8176 130.197 50.2447 130.088 50.6614C129.973 51.0676 129.859 51.4322 129.734 51.7655L123.067 73.4322H115.713L104.921 38.4739H111.734C112.427 38.4739 113.01 38.6353 113.484 38.953C113.953 39.276 114.265 39.6978 114.421 40.2239L119.213 58.453C119.364 59.0364 119.51 59.6718 119.651 60.3489C119.786 61.0312 119.932 61.7395 120.088 62.4739C120.364 60.9635 120.713 59.6197 121.13 58.453L126.796 40.2239C126.947 39.7655 127.26 39.3645 127.734 39.0155C128.203 38.6562 128.776 38.4739 129.442 38.4739H131.838C132.546 38.4739 133.114 38.6405 133.546 38.9739C133.973 39.2968 134.302 39.7135 134.526 40.2239L140.151 58.453C140.567 59.578 140.911 60.8489 141.192 62.2655C141.328 61.5468 141.463 60.8697 141.588 60.2447C141.723 59.6093 141.869 59.0103 142.026 58.453L146.817 40.2239C146.942 39.7551 147.239 39.3437 147.713 38.9947C148.197 38.651 148.781 38.4739 149.463 38.4739H155.838Z" fill="url(#paint10_linear_1007_12148)"/>
<path d="M155.838 38.4739L145.046 73.4322H137.692L131.13 51.7655C130.989 51.4322 130.864 51.0676 130.755 50.6614C130.64 50.2447 130.531 49.8176 130.421 49.3697C130.307 49.8176 130.197 50.2447 130.088 50.6614C129.973 51.0676 129.859 51.4322 129.734 51.7655L123.067 73.4322H115.713L104.921 38.4739H111.734C112.427 38.4739 113.01 38.6353 113.484 38.953C113.953 39.276 114.265 39.6978 114.421 40.2239L119.213 58.453C119.364 59.0364 119.51 59.6718 119.651 60.3489C119.786 61.0312 119.932 61.7395 120.088 62.4739C120.364 60.9635 120.713 59.6197 121.13 58.453L126.796 40.2239C126.947 39.7655 127.26 39.3645 127.734 39.0155C128.203 38.6562 128.776 38.4739 129.442 38.4739H131.838C132.546 38.4739 133.114 38.6405 133.546 38.9739C133.973 39.2968 134.302 39.7135 134.526 40.2239L140.151 58.453C140.567 59.578 140.911 60.8489 141.192 62.2655C141.328 61.5468 141.463 60.8697 141.588 60.2447C141.723 59.6093 141.869 59.0103 142.026 58.453L146.817 40.2239C146.942 39.7551 147.239 39.3437 147.713 38.9947C148.197 38.651 148.781 38.4739 149.463 38.4739H155.838Z" fill="url(#paint11_linear_1007_12148)"/>
<path d="M169.921 48.1614C171.806 48.1614 173.525 48.4635 175.067 49.0572C176.619 49.6405 177.952 50.4895 179.067 51.5989C180.176 52.6978 181.035 54.0364 181.65 55.6197C182.275 57.1926 182.587 58.9635 182.587 60.9322C182.587 62.9218 182.275 64.7135 181.65 66.3072C181.035 67.8905 180.176 69.2395 179.067 70.3489C177.952 71.4635 176.619 72.3176 175.067 72.9114C173.525 73.5051 171.806 73.8072 169.921 73.8072C168.014 73.8072 166.28 73.5051 164.712 72.9114C163.155 72.3176 161.806 71.4635 160.671 70.3489C159.546 69.2395 158.676 67.8905 158.067 66.3072C157.452 64.7135 157.15 62.9218 157.15 60.9322C157.15 58.9635 157.452 57.1926 158.067 55.6197C158.676 54.0364 159.546 52.6978 160.671 51.5989C161.806 50.4895 163.155 49.6405 164.712 49.0572C166.28 48.4635 168.014 48.1614 169.921 48.1614ZM169.921 68.2864C171.629 68.2864 172.884 67.6926 173.692 66.4947C174.494 65.2864 174.9 63.4478 174.9 60.9739C174.9 58.5155 174.494 56.6926 173.692 55.4947C172.884 54.2864 171.629 53.6822 169.921 53.6822C168.155 53.6822 166.863 54.2864 166.046 55.4947C165.223 56.6926 164.817 58.5155 164.817 60.9739C164.817 63.4478 165.223 65.2864 166.046 66.4947C166.863 67.6926 168.155 68.2864 169.921 68.2864Z" fill="#91D4AF"/>
<path d="M169.921 48.1614C171.806 48.1614 173.525 48.4635 175.067 49.0572C176.619 49.6405 177.952 50.4895 179.067 51.5989C180.176 52.6978 181.035 54.0364 181.65 55.6197C182.275 57.1926 182.587 58.9635 182.587 60.9322C182.587 62.9218 182.275 64.7135 181.65 66.3072C181.035 67.8905 180.176 69.2395 179.067 70.3489C177.952 71.4635 176.619 72.3176 175.067 72.9114C173.525 73.5051 171.806 73.8072 169.921 73.8072C168.014 73.8072 166.28 73.5051 164.712 72.9114C163.155 72.3176 161.806 71.4635 160.671 70.3489C159.546 69.2395 158.676 67.8905 158.067 66.3072C157.452 64.7135 157.15 62.9218 157.15 60.9322C157.15 58.9635 157.452 57.1926 158.067 55.6197C158.676 54.0364 159.546 52.6978 160.671 51.5989C161.806 50.4895 163.155 49.6405 164.712 49.0572C166.28 48.4635 168.014 48.1614 169.921 48.1614ZM169.921 68.2864C171.629 68.2864 172.884 67.6926 173.692 66.4947C174.494 65.2864 174.9 63.4478 174.9 60.9739C174.9 58.5155 174.494 56.6926 173.692 55.4947C172.884 54.2864 171.629 53.6822 169.921 53.6822C168.155 53.6822 166.863 54.2864 166.046 55.4947C165.223 56.6926 164.817 58.5155 164.817 60.9739C164.817 63.4478 165.223 65.2864 166.046 66.4947C166.863 67.6926 168.155 68.2864 169.921 68.2864Z" fill="url(#paint12_linear_1007_12148)"/>
<path d="M169.921 48.1614C171.806 48.1614 173.525 48.4635 175.067 49.0572C176.619 49.6405 177.952 50.4895 179.067 51.5989C180.176 52.6978 181.035 54.0364 181.65 55.6197C182.275 57.1926 182.587 58.9635 182.587 60.9322C182.587 62.9218 182.275 64.7135 181.65 66.3072C181.035 67.8905 180.176 69.2395 179.067 70.3489C177.952 71.4635 176.619 72.3176 175.067 72.9114C173.525 73.5051 171.806 73.8072 169.921 73.8072C168.014 73.8072 166.28 73.5051 164.712 72.9114C163.155 72.3176 161.806 71.4635 160.671 70.3489C159.546 69.2395 158.676 67.8905 158.067 66.3072C157.452 64.7135 157.15 62.9218 157.15 60.9322C157.15 58.9635 157.452 57.1926 158.067 55.6197C158.676 54.0364 159.546 52.6978 160.671 51.5989C161.806 50.4895 163.155 49.6405 164.712 49.0572C166.28 48.4635 168.014 48.1614 169.921 48.1614ZM169.921 68.2864C171.629 68.2864 172.884 67.6926 173.692 66.4947C174.494 65.2864 174.9 63.4478 174.9 60.9739C174.9 58.5155 174.494 56.6926 173.692 55.4947C172.884 54.2864 171.629 53.6822 169.921 53.6822C168.155 53.6822 166.863 54.2864 166.046 55.4947C165.223 56.6926 164.817 58.5155 164.817 60.9739C164.817 63.4478 165.223 65.2864 166.046 66.4947C166.863 67.6926 168.155 68.2864 169.921 68.2864Z" fill="url(#paint13_linear_1007_12148)"/>
<path d="M169.921 48.1614C171.806 48.1614 173.525 48.4635 175.067 49.0572C176.619 49.6405 177.952 50.4895 179.067 51.5989C180.176 52.6978 181.035 54.0364 181.65 55.6197C182.275 57.1926 182.587 58.9635 182.587 60.9322C182.587 62.9218 182.275 64.7135 181.65 66.3072C181.035 67.8905 180.176 69.2395 179.067 70.3489C177.952 71.4635 176.619 72.3176 175.067 72.9114C173.525 73.5051 171.806 73.8072 169.921 73.8072C168.014 73.8072 166.28 73.5051 164.712 72.9114C163.155 72.3176 161.806 71.4635 160.671 70.3489C159.546 69.2395 158.676 67.8905 158.067 66.3072C157.452 64.7135 157.15 62.9218 157.15 60.9322C157.15 58.9635 157.452 57.1926 158.067 55.6197C158.676 54.0364 159.546 52.6978 160.671 51.5989C161.806 50.4895 163.155 49.6405 164.712 49.0572C166.28 48.4635 168.014 48.1614 169.921 48.1614ZM169.921 68.2864C171.629 68.2864 172.884 67.6926 173.692 66.4947C174.494 65.2864 174.9 63.4478 174.9 60.9739C174.9 58.5155 174.494 56.6926 173.692 55.4947C172.884 54.2864 171.629 53.6822 169.921 53.6822C168.155 53.6822 166.863 54.2864 166.046 55.4947C165.223 56.6926 164.817 58.5155 164.817 60.9739C164.817 63.4478 165.223 65.2864 166.046 66.4947C166.863 67.6926 168.155 68.2864 169.921 68.2864Z" fill="url(#paint14_linear_1007_12148)"/>
<path d="M193.758 37.4948V73.4323H186.321V37.4948H193.758Z" fill="#91D4AF"/>
<path d="M193.758 37.4948V73.4323H186.321V37.4948H193.758Z" fill="url(#paint15_linear_1007_12148)"/>
<path d="M193.758 37.4948V73.4323H186.321V37.4948H193.758Z" fill="url(#paint16_linear_1007_12148)"/>
<path d="M193.758 37.4948V73.4323H186.321V37.4948H193.758Z" fill="url(#paint17_linear_1007_12148)"/>
<path d="M200.651 73.4322V53.6614L199.005 53.328C198.448 53.1926 197.994 52.9895 197.651 52.7239C197.302 52.4478 197.13 52.0468 197.13 51.5155V48.5989H200.651V47.1822C200.651 45.7551 200.869 44.4635 201.317 43.3072C201.776 42.1562 202.432 41.177 203.297 40.3697C204.156 39.552 205.198 38.9218 206.422 38.4739C207.656 38.0155 209.057 37.7864 210.63 37.7864C211.239 37.7864 211.797 37.828 212.297 37.9114C212.807 37.9843 213.349 38.0937 213.922 38.2447L213.776 41.8697C213.76 42.1353 213.698 42.3489 213.588 42.5155C213.474 42.6822 213.323 42.8228 213.13 42.9322C212.948 43.0312 212.755 43.1093 212.547 43.1614C212.338 43.203 212.13 43.2239 211.922 43.2239C211.265 43.2239 210.682 43.2864 210.172 43.4114C209.656 43.5364 209.224 43.7655 208.88 44.0989C208.547 44.4218 208.286 44.8489 208.109 45.3905C207.927 45.9218 207.838 46.5937 207.838 47.4114V48.5989H213.672V53.6822H208.088V73.4322H200.651Z" fill="#91D4AF"/>
<path d="M200.651 73.4322V53.6614L199.005 53.328C198.448 53.1926 197.994 52.9895 197.651 52.7239C197.302 52.4478 197.13 52.0468 197.13 51.5155V48.5989H200.651V47.1822C200.651 45.7551 200.869 44.4635 201.317 43.3072C201.776 42.1562 202.432 41.177 203.297 40.3697C204.156 39.552 205.198 38.9218 206.422 38.4739C207.656 38.0155 209.057 37.7864 210.63 37.7864C211.239 37.7864 211.797 37.828 212.297 37.9114C212.807 37.9843 213.349 38.0937 213.922 38.2447L213.776 41.8697C213.76 42.1353 213.698 42.3489 213.588 42.5155C213.474 42.6822 213.323 42.8228 213.13 42.9322C212.948 43.0312 212.755 43.1093 212.547 43.1614C212.338 43.203 212.13 43.2239 211.922 43.2239C211.265 43.2239 210.682 43.2864 210.172 43.4114C209.656 43.5364 209.224 43.7655 208.88 44.0989C208.547 44.4218 208.286 44.8489 208.109 45.3905C207.927 45.9218 207.838 46.5937 207.838 47.4114V48.5989H213.672V53.6822H208.088V73.4322H200.651Z" fill="url(#paint18_linear_1007_12148)"/>
<path d="M200.651 73.4322V53.6614L199.005 53.328C198.448 53.1926 197.994 52.9895 197.651 52.7239C197.302 52.4478 197.13 52.0468 197.13 51.5155V48.5989H200.651V47.1822C200.651 45.7551 200.869 44.4635 201.317 43.3072C201.776 42.1562 202.432 41.177 203.297 40.3697C204.156 39.552 205.198 38.9218 206.422 38.4739C207.656 38.0155 209.057 37.7864 210.63 37.7864C211.239 37.7864 211.797 37.828 212.297 37.9114C212.807 37.9843 213.349 38.0937 213.922 38.2447L213.776 41.8697C213.76 42.1353 213.698 42.3489 213.588 42.5155C213.474 42.6822 213.323 42.8228 213.13 42.9322C212.948 43.0312 212.755 43.1093 212.547 43.1614C212.338 43.203 212.13 43.2239 211.922 43.2239C211.265 43.2239 210.682 43.2864 210.172 43.4114C209.656 43.5364 209.224 43.7655 208.88 44.0989C208.547 44.4218 208.286 44.8489 208.109 45.3905C207.927 45.9218 207.838 46.5937 207.838 47.4114V48.5989H213.672V53.6822H208.088V73.4322H200.651Z" fill="url(#paint19_linear_1007_12148)"/>
<path d="M200.651 73.4322V53.6614L199.005 53.328C198.448 53.1926 197.994 52.9895 197.651 52.7239C197.302 52.4478 197.13 52.0468 197.13 51.5155V48.5989H200.651V47.1822C200.651 45.7551 200.869 44.4635 201.317 43.3072C201.776 42.1562 202.432 41.177 203.297 40.3697C204.156 39.552 205.198 38.9218 206.422 38.4739C207.656 38.0155 209.057 37.7864 210.63 37.7864C211.239 37.7864 211.797 37.828 212.297 37.9114C212.807 37.9843 213.349 38.0937 213.922 38.2447L213.776 41.8697C213.76 42.1353 213.698 42.3489 213.588 42.5155C213.474 42.6822 213.323 42.8228 213.13 42.9322C212.948 43.0312 212.755 43.1093 212.547 43.1614C212.338 43.203 212.13 43.2239 211.922 43.2239C211.265 43.2239 210.682 43.2864 210.172 43.4114C209.656 43.5364 209.224 43.7655 208.88 44.0989C208.547 44.4218 208.286 44.8489 208.109 45.3905C207.927 45.9218 207.838 46.5937 207.838 47.4114V48.5989H213.672V53.6822H208.088V73.4322H200.651Z" fill="url(#paint20_linear_1007_12148)"/>
<path d="M231.046 67.3072C232.114 67.3072 232.989 67.177 233.671 66.9114C234.349 66.6353 234.88 66.2812 235.255 65.8489C235.64 65.4218 235.906 64.9322 236.046 64.3905C236.198 63.8489 236.276 63.2968 236.276 62.7239C236.276 62.0885 236.192 61.5103 236.026 60.9947C235.859 60.4843 235.567 60.052 235.151 59.703C234.744 59.3593 234.203 59.0885 233.526 58.8905C232.859 58.6978 232.015 58.5989 231.005 58.5989H225.338V67.3072H231.046ZM225.338 44.5364V53.1822H229.567C230.453 53.1822 231.26 53.1197 231.984 52.9947C232.703 52.8593 233.317 52.6301 233.817 52.3072C234.317 51.9895 234.698 51.552 234.963 50.9947C235.224 50.4426 235.359 49.7395 235.359 48.8905C235.359 48.0572 235.255 47.3645 235.046 46.8072C234.838 46.2551 234.515 45.8072 234.088 45.4739C233.656 45.1405 233.109 44.9062 232.442 44.7655C231.786 44.6145 231.005 44.5364 230.088 44.5364H225.338ZM230.088 38.4739C232.505 38.4739 234.557 38.6978 236.255 39.1405C237.948 39.5885 239.328 40.2187 240.401 41.0364C241.468 41.8593 242.244 42.8489 242.734 44.0155C243.234 45.1822 243.484 46.4843 243.484 47.9114C243.484 48.703 243.364 49.4687 243.13 50.203C242.906 50.927 242.552 51.6093 242.067 52.2447C241.593 52.8697 240.984 53.4478 240.234 53.9739C239.484 54.5051 238.578 54.953 237.526 55.328C239.828 55.901 241.531 56.8072 242.63 58.0572C243.739 59.2968 244.296 60.9062 244.296 62.8905C244.296 64.3801 244.005 65.7655 243.421 67.0572C242.849 68.3385 242.01 69.453 240.901 70.4114C239.786 71.3593 238.411 72.0989 236.776 72.6405C235.151 73.1718 233.286 73.4322 231.192 73.4322H217.213V38.4739H230.088Z" fill="#91D4AF"/>
<path d="M231.046 67.3072C232.114 67.3072 232.989 67.177 233.671 66.9114C234.349 66.6353 234.88 66.2812 235.255 65.8489C235.64 65.4218 235.906 64.9322 236.046 64.3905C236.198 63.8489 236.276 63.2968 236.276 62.7239C236.276 62.0885 236.192 61.5103 236.026 60.9947C235.859 60.4843 235.567 60.052 235.151 59.703C234.744 59.3593 234.203 59.0885 233.526 58.8905C232.859 58.6978 232.015 58.5989 231.005 58.5989H225.338V67.3072H231.046ZM225.338 44.5364V53.1822H229.567C230.453 53.1822 231.26 53.1197 231.984 52.9947C232.703 52.8593 233.317 52.6301 233.817 52.3072C234.317 51.9895 234.698 51.552 234.963 50.9947C235.224 50.4426 235.359 49.7395 235.359 48.8905C235.359 48.0572 235.255 47.3645 235.046 46.8072C234.838 46.2551 234.515 45.8072 234.088 45.4739C233.656 45.1405 233.109 44.9062 232.442 44.7655C231.786 44.6145 231.005 44.5364 230.088 44.5364H225.338ZM230.088 38.4739C232.505 38.4739 234.557 38.6978 236.255 39.1405C237.948 39.5885 239.328 40.2187 240.401 41.0364C241.468 41.8593 242.244 42.8489 242.734 44.0155C243.234 45.1822 243.484 46.4843 243.484 47.9114C243.484 48.703 243.364 49.4687 243.13 50.203C242.906 50.927 242.552 51.6093 242.067 52.2447C241.593 52.8697 240.984 53.4478 240.234 53.9739C239.484 54.5051 238.578 54.953 237.526 55.328C239.828 55.901 241.531 56.8072 242.63 58.0572C243.739 59.2968 244.296 60.9062 244.296 62.8905C244.296 64.3801 244.005 65.7655 243.421 67.0572C242.849 68.3385 242.01 69.453 240.901 70.4114C239.786 71.3593 238.411 72.0989 236.776 72.6405C235.151 73.1718 233.286 73.4322 231.192 73.4322H217.213V38.4739H230.088Z" fill="url(#paint21_linear_1007_12148)"/>
<path d="M231.046 67.3072C232.114 67.3072 232.989 67.177 233.671 66.9114C234.349 66.6353 234.88 66.2812 235.255 65.8489C235.64 65.4218 235.906 64.9322 236.046 64.3905C236.198 63.8489 236.276 63.2968 236.276 62.7239C236.276 62.0885 236.192 61.5103 236.026 60.9947C235.859 60.4843 235.567 60.052 235.151 59.703C234.744 59.3593 234.203 59.0885 233.526 58.8905C232.859 58.6978 232.015 58.5989 231.005 58.5989H225.338V67.3072H231.046ZM225.338 44.5364V53.1822H229.567C230.453 53.1822 231.26 53.1197 231.984 52.9947C232.703 52.8593 233.317 52.6301 233.817 52.3072C234.317 51.9895 234.698 51.552 234.963 50.9947C235.224 50.4426 235.359 49.7395 235.359 48.8905C235.359 48.0572 235.255 47.3645 235.046 46.8072C234.838 46.2551 234.515 45.8072 234.088 45.4739C233.656 45.1405 233.109 44.9062 232.442 44.7655C231.786 44.6145 231.005 44.5364 230.088 44.5364H225.338ZM230.088 38.4739C232.505 38.4739 234.557 38.6978 236.255 39.1405C237.948 39.5885 239.328 40.2187 240.401 41.0364C241.468 41.8593 242.244 42.8489 242.734 44.0155C243.234 45.1822 243.484 46.4843 243.484 47.9114C243.484 48.703 243.364 49.4687 243.13 50.203C242.906 50.927 242.552 51.6093 242.067 52.2447C241.593 52.8697 240.984 53.4478 240.234 53.9739C239.484 54.5051 238.578 54.953 237.526 55.328C239.828 55.901 241.531 56.8072 242.63 58.0572C243.739 59.2968 244.296 60.9062 244.296 62.8905C244.296 64.3801 244.005 65.7655 243.421 67.0572C242.849 68.3385 242.01 69.453 240.901 70.4114C239.786 71.3593 238.411 72.0989 236.776 72.6405C235.151 73.1718 233.286 73.4322 231.192 73.4322H217.213V38.4739H230.088Z" fill="url(#paint22_linear_1007_12148)"/>
<path d="M231.046 67.3072C232.114 67.3072 232.989 67.177 233.671 66.9114C234.349 66.6353 234.88 66.2812 235.255 65.8489C235.64 65.4218 235.906 64.9322 236.046 64.3905C236.198 63.8489 236.276 63.2968 236.276 62.7239C236.276 62.0885 236.192 61.5103 236.026 60.9947C235.859 60.4843 235.567 60.052 235.151 59.703C234.744 59.3593 234.203 59.0885 233.526 58.8905C232.859 58.6978 232.015 58.5989 231.005 58.5989H225.338V67.3072H231.046ZM225.338 44.5364V53.1822H229.567C230.453 53.1822 231.26 53.1197 231.984 52.9947C232.703 52.8593 233.317 52.6301 233.817 52.3072C234.317 51.9895 234.698 51.552 234.963 50.9947C235.224 50.4426 235.359 49.7395 235.359 48.8905C235.359 48.0572 235.255 47.3645 235.046 46.8072C234.838 46.2551 234.515 45.8072 234.088 45.4739C233.656 45.1405 233.109 44.9062 232.442 44.7655C231.786 44.6145 231.005 44.5364 230.088 44.5364H225.338ZM230.088 38.4739C232.505 38.4739 234.557 38.6978 236.255 39.1405C237.948 39.5885 239.328 40.2187 240.401 41.0364C241.468 41.8593 242.244 42.8489 242.734 44.0155C243.234 45.1822 243.484 46.4843 243.484 47.9114C243.484 48.703 243.364 49.4687 243.13 50.203C242.906 50.927 242.552 51.6093 242.067 52.2447C241.593 52.8697 240.984 53.4478 240.234 53.9739C239.484 54.5051 238.578 54.953 237.526 55.328C239.828 55.901 241.531 56.8072 242.63 58.0572C243.739 59.2968 244.296 60.9062 244.296 62.8905C244.296 64.3801 244.005 65.7655 243.421 67.0572C242.849 68.3385 242.01 69.453 240.901 70.4114C239.786 71.3593 238.411 72.0989 236.776 72.6405C235.151 73.1718 233.286 73.4322 231.192 73.4322H217.213V38.4739H230.088Z" fill="url(#paint23_linear_1007_12148)"/>
<path d="M263.964 57.9947C263.964 57.4114 263.886 56.8437 263.735 56.2864C263.578 55.7187 263.328 55.2187 262.985 54.7864C262.651 54.3437 262.198 53.9843 261.63 53.703C261.073 53.427 260.391 53.2864 259.589 53.2864C258.183 53.2864 257.078 53.6978 256.276 54.5155C255.485 55.3228 254.953 56.4843 254.693 57.9947H263.964ZM254.61 62.328C254.844 64.401 255.469 65.9062 256.485 66.8489C257.511 67.7812 258.839 68.2447 260.464 68.2447C261.323 68.2447 262.068 68.1405 262.693 67.9322C263.318 67.7239 263.87 67.4947 264.36 67.2447C264.844 66.9843 265.287 66.7447 265.693 66.5364C266.11 66.328 266.537 66.2239 266.985 66.2239C267.578 66.2239 268.031 66.4478 268.339 66.8905L270.485 69.5364C269.719 70.427 268.891 71.151 268.005 71.703C267.115 72.2447 266.198 72.677 265.255 72.9947C264.323 73.302 263.391 73.5051 262.464 73.6197C261.531 73.7447 260.641 73.8072 259.797 73.8072C258.047 73.8072 256.406 73.526 254.88 72.9739C253.349 72.4062 252.011 71.5572 250.86 70.4322C249.719 69.3072 248.818 67.9218 248.151 66.2655C247.495 64.5989 247.172 62.6614 247.172 60.453C247.172 58.7864 247.448 57.2135 248.005 55.7239C248.573 54.2395 249.391 52.9322 250.464 51.8072C251.531 50.6822 252.818 49.7968 254.318 49.1405C255.828 48.4895 257.537 48.1614 259.443 48.1614C261.094 48.1614 262.599 48.4218 263.964 48.9322C265.339 49.4478 266.516 50.1926 267.505 51.1614C268.49 52.1353 269.255 53.328 269.797 54.7447C270.349 56.1614 270.63 57.7655 270.63 59.5572C270.63 60.1145 270.599 60.5728 270.547 60.9322C270.505 61.2812 270.422 61.5572 270.297 61.7655C270.172 61.9739 269.995 62.1197 269.776 62.203C269.568 62.2864 269.297 62.328 268.964 62.328H254.61Z" fill="#91D4AF"/>
<path d="M263.964 57.9947C263.964 57.4114 263.886 56.8437 263.735 56.2864C263.578 55.7187 263.328 55.2187 262.985 54.7864C262.651 54.3437 262.198 53.9843 261.63 53.703C261.073 53.427 260.391 53.2864 259.589 53.2864C258.183 53.2864 257.078 53.6978 256.276 54.5155C255.485 55.3228 254.953 56.4843 254.693 57.9947H263.964ZM254.61 62.328C254.844 64.401 255.469 65.9062 256.485 66.8489C257.511 67.7812 258.839 68.2447 260.464 68.2447C261.323 68.2447 262.068 68.1405 262.693 67.9322C263.318 67.7239 263.87 67.4947 264.36 67.2447C264.844 66.9843 265.287 66.7447 265.693 66.5364C266.11 66.328 266.537 66.2239 266.985 66.2239C267.578 66.2239 268.031 66.4478 268.339 66.8905L270.485 69.5364C269.719 70.427 268.891 71.151 268.005 71.703C267.115 72.2447 266.198 72.677 265.255 72.9947C264.323 73.302 263.391 73.5051 262.464 73.6197C261.531 73.7447 260.641 73.8072 259.797 73.8072C258.047 73.8072 256.406 73.526 254.88 72.9739C253.349 72.4062 252.011 71.5572 250.86 70.4322C249.719 69.3072 248.818 67.9218 248.151 66.2655C247.495 64.5989 247.172 62.6614 247.172 60.453C247.172 58.7864 247.448 57.2135 248.005 55.7239C248.573 54.2395 249.391 52.9322 250.464 51.8072C251.531 50.6822 252.818 49.7968 254.318 49.1405C255.828 48.4895 257.537 48.1614 259.443 48.1614C261.094 48.1614 262.599 48.4218 263.964 48.9322C265.339 49.4478 266.516 50.1926 267.505 51.1614C268.49 52.1353 269.255 53.328 269.797 54.7447C270.349 56.1614 270.63 57.7655 270.63 59.5572C270.63 60.1145 270.599 60.5728 270.547 60.9322C270.505 61.2812 270.422 61.5572 270.297 61.7655C270.172 61.9739 269.995 62.1197 269.776 62.203C269.568 62.2864 269.297 62.328 268.964 62.328H254.61Z" fill="url(#paint24_linear_1007_12148)"/>
<path d="M263.964 57.9947C263.964 57.4114 263.886 56.8437 263.735 56.2864C263.578 55.7187 263.328 55.2187 262.985 54.7864C262.651 54.3437 262.198 53.9843 261.63 53.703C261.073 53.427 260.391 53.2864 259.589 53.2864C258.183 53.2864 257.078 53.6978 256.276 54.5155C255.485 55.3228 254.953 56.4843 254.693 57.9947H263.964ZM254.61 62.328C254.844 64.401 255.469 65.9062 256.485 66.8489C257.511 67.7812 258.839 68.2447 260.464 68.2447C261.323 68.2447 262.068 68.1405 262.693 67.9322C263.318 67.7239 263.87 67.4947 264.36 67.2447C264.844 66.9843 265.287 66.7447 265.693 66.5364C266.11 66.328 266.537 66.2239 266.985 66.2239C267.578 66.2239 268.031 66.4478 268.339 66.8905L270.485 69.5364C269.719 70.427 268.891 71.151 268.005 71.703C267.115 72.2447 266.198 72.677 265.255 72.9947C264.323 73.302 263.391 73.5051 262.464 73.6197C261.531 73.7447 260.641 73.8072 259.797 73.8072C258.047 73.8072 256.406 73.526 254.88 72.9739C253.349 72.4062 252.011 71.5572 250.86 70.4322C249.719 69.3072 248.818 67.9218 248.151 66.2655C247.495 64.5989 247.172 62.6614 247.172 60.453C247.172 58.7864 247.448 57.2135 248.005 55.7239C248.573 54.2395 249.391 52.9322 250.464 51.8072C251.531 50.6822 252.818 49.7968 254.318 49.1405C255.828 48.4895 257.537 48.1614 259.443 48.1614C261.094 48.1614 262.599 48.4218 263.964 48.9322C265.339 49.4478 266.516 50.1926 267.505 51.1614C268.49 52.1353 269.255 53.328 269.797 54.7447C270.349 56.1614 270.63 57.7655 270.63 59.5572C270.63 60.1145 270.599 60.5728 270.547 60.9322C270.505 61.2812 270.422 61.5572 270.297 61.7655C270.172 61.9739 269.995 62.1197 269.776 62.203C269.568 62.2864 269.297 62.328 268.964 62.328H254.61Z" fill="url(#paint25_linear_1007_12148)"/>
<path d="M263.964 57.9947C263.964 57.4114 263.886 56.8437 263.735 56.2864C263.578 55.7187 263.328 55.2187 262.985 54.7864C262.651 54.3437 262.198 53.9843 261.63 53.703C261.073 53.427 260.391 53.2864 259.589 53.2864C258.183 53.2864 257.078 53.6978 256.276 54.5155C255.485 55.3228 254.953 56.4843 254.693 57.9947H263.964ZM254.61 62.328C254.844 64.401 255.469 65.9062 256.485 66.8489C257.511 67.7812 258.839 68.2447 260.464 68.2447C261.323 68.2447 262.068 68.1405 262.693 67.9322C263.318 67.7239 263.87 67.4947 264.36 67.2447C264.844 66.9843 265.287 66.7447 265.693 66.5364C266.11 66.328 266.537 66.2239 266.985 66.2239C267.578 66.2239 268.031 66.4478 268.339 66.8905L270.485 69.5364C269.719 70.427 268.891 71.151 268.005 71.703C267.115 72.2447 266.198 72.677 265.255 72.9947C264.323 73.302 263.391 73.5051 262.464 73.6197C261.531 73.7447 260.641 73.8072 259.797 73.8072C258.047 73.8072 256.406 73.526 254.88 72.9739C253.349 72.4062 252.011 71.5572 250.86 70.4322C249.719 69.3072 248.818 67.9218 248.151 66.2655C247.495 64.5989 247.172 62.6614 247.172 60.453C247.172 58.7864 247.448 57.2135 248.005 55.7239C248.573 54.2395 249.391 52.9322 250.464 51.8072C251.531 50.6822 252.818 49.7968 254.318 49.1405C255.828 48.4895 257.537 48.1614 259.443 48.1614C261.094 48.1614 262.599 48.4218 263.964 48.9322C265.339 49.4478 266.516 50.1926 267.505 51.1614C268.49 52.1353 269.255 53.328 269.797 54.7447C270.349 56.1614 270.63 57.7655 270.63 59.5572C270.63 60.1145 270.599 60.5728 270.547 60.9322C270.505 61.2812 270.422 61.5572 270.297 61.7655C270.172 61.9739 269.995 62.1197 269.776 62.203C269.568 62.2864 269.297 62.328 268.964 62.328H254.61Z" fill="url(#paint26_linear_1007_12148)"/>
<path d="M283.244 73.8072C282.062 73.8072 281.02 73.6405 280.119 73.3072C279.213 72.9634 278.452 72.4738 277.827 71.8488C277.213 71.2134 276.749 70.4478 276.432 69.5572C276.109 68.6561 275.952 67.6509 275.952 66.5363V53.6822H273.848C273.458 53.6822 273.124 53.5572 272.848 53.3072C272.583 53.0572 272.452 52.6978 272.452 52.2238V49.3072L276.411 48.5363L277.869 42.4738C278.062 41.7134 278.609 41.328 279.515 41.328H283.39V48.5988H289.557V53.6822H283.39V66.0363C283.39 66.6197 283.525 67.0988 283.807 67.4738C284.098 67.8488 284.504 68.0363 285.036 68.0363C285.296 68.0363 285.52 68.0103 285.702 67.953C285.895 67.9009 286.057 67.8384 286.182 67.7655C286.317 67.6822 286.452 67.6145 286.577 67.5572C286.702 67.5051 286.838 67.4738 286.994 67.4738C287.213 67.4738 287.395 67.5311 287.536 67.6405C287.671 67.7395 287.812 67.9009 287.952 68.1197L290.202 71.6613C289.244 72.3853 288.166 72.927 286.973 73.2863C285.775 73.6301 284.536 73.8072 283.244 73.8072Z" fill="#91D4AF"/>
<path d="M283.244 73.8072C282.062 73.8072 281.02 73.6405 280.119 73.3072C279.213 72.9634 278.452 72.4738 277.827 71.8488C277.213 71.2134 276.749 70.4478 276.432 69.5572C276.109 68.6561 275.952 67.6509 275.952 66.5363V53.6822H273.848C273.458 53.6822 273.124 53.5572 272.848 53.3072C272.583 53.0572 272.452 52.6978 272.452 52.2238V49.3072L276.411 48.5363L277.869 42.4738C278.062 41.7134 278.609 41.328 279.515 41.328H283.39V48.5988H289.557V53.6822H283.39V66.0363C283.39 66.6197 283.525 67.0988 283.807 67.4738C284.098 67.8488 284.504 68.0363 285.036 68.0363C285.296 68.0363 285.52 68.0103 285.702 67.953C285.895 67.9009 286.057 67.8384 286.182 67.7655C286.317 67.6822 286.452 67.6145 286.577 67.5572C286.702 67.5051 286.838 67.4738 286.994 67.4738C287.213 67.4738 287.395 67.5311 287.536 67.6405C287.671 67.7395 287.812 67.9009 287.952 68.1197L290.202 71.6613C289.244 72.3853 288.166 72.927 286.973 73.2863C285.775 73.6301 284.536 73.8072 283.244 73.8072Z" fill="url(#paint27_linear_1007_12148)"/>
<path d="M283.244 73.8072C282.062 73.8072 281.02 73.6405 280.119 73.3072C279.213 72.9634 278.452 72.4738 277.827 71.8488C277.213 71.2134 276.749 70.4478 276.432 69.5572C276.109 68.6561 275.952 67.6509 275.952 66.5363V53.6822H273.848C273.458 53.6822 273.124 53.5572 272.848 53.3072C272.583 53.0572 272.452 52.6978 272.452 52.2238V49.3072L276.411 48.5363L277.869 42.4738C278.062 41.7134 278.609 41.328 279.515 41.328H283.39V48.5988H289.557V53.6822H283.39V66.0363C283.39 66.6197 283.525 67.0988 283.807 67.4738C284.098 67.8488 284.504 68.0363 285.036 68.0363C285.296 68.0363 285.52 68.0103 285.702 67.953C285.895 67.9009 286.057 67.8384 286.182 67.7655C286.317 67.6822 286.452 67.6145 286.577 67.5572C286.702 67.5051 286.838 67.4738 286.994 67.4738C287.213 67.4738 287.395 67.5311 287.536 67.6405C287.671 67.7395 287.812 67.9009 287.952 68.1197L290.202 71.6613C289.244 72.3853 288.166 72.927 286.973 73.2863C285.775 73.6301 284.536 73.8072 283.244 73.8072Z" fill="url(#paint28_linear_1007_12148)"/>
<path d="M283.244 73.8072C282.062 73.8072 281.02 73.6405 280.119 73.3072C279.213 72.9634 278.452 72.4738 277.827 71.8488C277.213 71.2134 276.749 70.4478 276.432 69.5572C276.109 68.6561 275.952 67.6509 275.952 66.5363V53.6822H273.848C273.458 53.6822 273.124 53.5572 272.848 53.3072C272.583 53.0572 272.452 52.6978 272.452 52.2238V49.3072L276.411 48.5363L277.869 42.4738C278.062 41.7134 278.609 41.328 279.515 41.328H283.39V48.5988H289.557V53.6822H283.39V66.0363C283.39 66.6197 283.525 67.0988 283.807 67.4738C284.098 67.8488 284.504 68.0363 285.036 68.0363C285.296 68.0363 285.52 68.0103 285.702 67.953C285.895 67.9009 286.057 67.8384 286.182 67.7655C286.317 67.6822 286.452 67.6145 286.577 67.5572C286.702 67.5051 286.838 67.4738 286.994 67.4738C287.213 67.4738 287.395 67.5311 287.536 67.6405C287.671 67.7395 287.812 67.9009 287.952 68.1197L290.202 71.6613C289.244 72.3853 288.166 72.927 286.973 73.2863C285.775 73.6301 284.536 73.8072 283.244 73.8072Z" fill="url(#paint29_linear_1007_12148)"/>
<defs>
<linearGradient id="paint0_linear_1007_12148" x1="290.135" y1="54.9322" x2="107" y2="55.0201" gradientUnits="userSpaceOnUse">
<stop stop-color="#002233"/>
<stop offset="1" stop-color="#002233" stop-opacity="0"/>
</linearGradient>
<linearGradient id="paint1_linear_1007_12148" x1="185.5" y1="55.0201" x2="290" y2="55.0201" gradientUnits="userSpaceOnUse">
<stop stop-color="#91D4AF"/>
<stop offset="1" stop-color="#91D4AF" stop-opacity="0"/>
</linearGradient>
<linearGradient id="paint2_linear_1007_12148" x1="0.135498" y1="54.9323" x2="290.136" y2="54.9323" gradientUnits="userSpaceOnUse">
<stop offset="0.0668698" stop-color="#B5E3C5"/>
<stop offset="0.501538" stop-color="#B5E3C5" stop-opacity="0"/>
</linearGradient>
<linearGradient id="paint3_linear_1007_12148" x1="290.135" y1="54.9322" x2="107" y2="55.0201" gradientUnits="userSpaceOnUse">
<stop stop-color="#002233"/>
<stop offset="1" stop-color="#002233" stop-opacity="0"/>
</linearGradient>
<linearGradient id="paint4_linear_1007_12148" x1="185.5" y1="55.0201" x2="290" y2="55.0201" gradientUnits="userSpaceOnUse">
<stop stop-color="#91D4AF"/>
<stop offset="1" stop-color="#91D4AF" stop-opacity="0"/>
</linearGradient>
<linearGradient id="paint5_linear_1007_12148" x1="0.135498" y1="54.9323" x2="290.136" y2="54.9323" gradientUnits="userSpaceOnUse">
<stop offset="0.0668698" stop-color="#B5E3C5"/>
<stop offset="0.501538" stop-color="#B5E3C5" stop-opacity="0"/>
</linearGradient>
<linearGradient id="paint6_linear_1007_12148" x1="290.135" y1="54.9322" x2="107" y2="55.0201" gradientUnits="userSpaceOnUse">
<stop stop-color="#002233"/>
<stop offset="1" stop-color="#002233" stop-opacity="0"/>
</linearGradient>
<linearGradient id="paint7_linear_1007_12148" x1="185.5" y1="55.0201" x2="290" y2="55.0201" gradientUnits="userSpaceOnUse">
<stop stop-color="#91D4AF"/>
<stop offset="1" stop-color="#91D4AF" stop-opacity="0"/>
</linearGradient>
<linearGradient id="paint8_linear_1007_12148" x1="0.135498" y1="54.9323" x2="290.136" y2="54.9323" gradientUnits="userSpaceOnUse">
<stop offset="0.0668698" stop-color="#B5E3C5"/>
<stop offset="0.501538" stop-color="#B5E3C5" stop-opacity="0"/>
</linearGradient>
<linearGradient id="paint9_linear_1007_12148" x1="290.135" y1="54.9322" x2="107" y2="55.0201" gradientUnits="userSpaceOnUse">
<stop stop-color="#002233"/>
<stop offset="1" stop-color="#002233" stop-opacity="0"/>
</linearGradient>
<linearGradient id="paint10_linear_1007_12148" x1="185.5" y1="55.0201" x2="290" y2="55.0201" gradientUnits="userSpaceOnUse">
<stop stop-color="#91D4AF"/>
<stop offset="1" stop-color="#91D4AF" stop-opacity="0"/>
</linearGradient>
<linearGradient id="paint11_linear_1007_12148" x1="0.135498" y1="54.9323" x2="290.136" y2="54.9323" gradientUnits="userSpaceOnUse">
<stop offset="0.0668698" stop-color="#B5E3C5"/>
<stop offset="0.501538" stop-color="#B5E3C5" stop-opacity="0"/>
</linearGradient>
<linearGradient id="paint12_linear_1007_12148" x1="290.135" y1="54.9322" x2="107" y2="55.0201" gradientUnits="userSpaceOnUse">
<stop stop-color="#002233"/>
<stop offset="1" stop-color="#002233" stop-opacity="0"/>
</linearGradient>
<linearGradient id="paint13_linear_1007_12148" x1="185.5" y1="55.0201" x2="290" y2="55.0201" gradientUnits="userSpaceOnUse">
<stop stop-color="#91D4AF"/>
<stop offset="1" stop-color="#91D4AF" stop-opacity="0"/>
</linearGradient>
<linearGradient id="paint14_linear_1007_12148" x1="0.135498" y1="54.9323" x2="290.136" y2="54.9323" gradientUnits="userSpaceOnUse">
<stop offset="0.0668698" stop-color="#B5E3C5"/>
<stop offset="0.501538" stop-color="#B5E3C5" stop-opacity="0"/>
</linearGradient>
<linearGradient id="paint15_linear_1007_12148" x1="290.135" y1="54.9322" x2="107" y2="55.0201" gradientUnits="userSpaceOnUse">
<stop stop-color="#002233"/>
<stop offset="1" stop-color="#002233" stop-opacity="0"/>
</linearGradient>
<linearGradient id="paint16_linear_1007_12148" x1="185.5" y1="55.0201" x2="290" y2="55.0201" gradientUnits="userSpaceOnUse">
<stop stop-color="#91D4AF"/>
<stop offset="1" stop-color="#91D4AF" stop-opacity="0"/>
</linearGradient>
<linearGradient id="paint17_linear_1007_12148" x1="0.135498" y1="54.9323" x2="290.136" y2="54.9323" gradientUnits="userSpaceOnUse">
<stop offset="0.0668698" stop-color="#B5E3C5"/>
<stop offset="0.501538" stop-color="#B5E3C5" stop-opacity="0"/>
</linearGradient>
<linearGradient id="paint18_linear_1007_12148" x1="290.135" y1="54.9322" x2="107" y2="55.0201" gradientUnits="userSpaceOnUse">
<stop stop-color="#002233"/>
<stop offset="1" stop-color="#002233" stop-opacity="0"/>
</linearGradient>
<linearGradient id="paint19_linear_1007_12148" x1="185.5" y1="55.0201" x2="290" y2="55.0201" gradientUnits="userSpaceOnUse">
<stop stop-color="#91D4AF"/>
<stop offset="1" stop-color="#91D4AF" stop-opacity="0"/>
</linearGradient>
<linearGradient id="paint20_linear_1007_12148" x1="0.135498" y1="54.9323" x2="290.136" y2="54.9323" gradientUnits="userSpaceOnUse">
<stop offset="0.0668698" stop-color="#B5E3C5"/>
<stop offset="0.501538" stop-color="#B5E3C5" stop-opacity="0"/>
</linearGradient>
<linearGradient id="paint21_linear_1007_12148" x1="290.135" y1="54.9322" x2="107" y2="55.0201" gradientUnits="userSpaceOnUse">
<stop stop-color="#002233"/>
<stop offset="1" stop-color="#002233" stop-opacity="0"/>
</linearGradient>
<linearGradient id="paint22_linear_1007_12148" x1="185.5" y1="55.0201" x2="290" y2="55.0201" gradientUnits="userSpaceOnUse">
<stop stop-color="#91D4AF"/>
<stop offset="1" stop-color="#91D4AF" stop-opacity="0"/>
</linearGradient>
<linearGradient id="paint23_linear_1007_12148" x1="0.135498" y1="54.9323" x2="290.136" y2="54.9323" gradientUnits="userSpaceOnUse">
<stop offset="0.0668698" stop-color="#B5E3C5"/>
<stop offset="0.501538" stop-color="#B5E3C5" stop-opacity="0"/>
</linearGradient>
<linearGradient id="paint24_linear_1007_12148" x1="290.135" y1="54.9322" x2="107" y2="55.0201" gradientUnits="userSpaceOnUse">
<stop stop-color="#002233"/>
<stop offset="1" stop-color="#002233" stop-opacity="0"/>
</linearGradient>
<linearGradient id="paint25_linear_1007_12148" x1="185.5" y1="55.0201" x2="290" y2="55.0201" gradientUnits="userSpaceOnUse">
<stop stop-color="#91D4AF"/>
<stop offset="1" stop-color="#91D4AF" stop-opacity="0"/>
</linearGradient>
<linearGradient id="paint26_linear_1007_12148" x1="0.135498" y1="54.9323" x2="290.136" y2="54.9323" gradientUnits="userSpaceOnUse">
<stop offset="0.0668698" stop-color="#B5E3C5"/>
<stop offset="0.501538" stop-color="#B5E3C5" stop-opacity="0"/>
</linearGradient>
<linearGradient id="paint27_linear_1007_12148" x1="290.135" y1="54.9322" x2="107" y2="55.0201" gradientUnits="userSpaceOnUse">
<stop stop-color="#002233"/>
<stop offset="1" stop-color="#002233" stop-opacity="0"/>
</linearGradient>
<linearGradient id="paint28_linear_1007_12148" x1="185.5" y1="55.0201" x2="290" y2="55.0201" gradientUnits="userSpaceOnUse">
<stop stop-color="#91D4AF"/>
<stop offset="1" stop-color="#91D4AF" stop-opacity="0"/>
</linearGradient>
<linearGradient id="paint29_linear_1007_12148" x1="0.135498" y1="54.9323" x2="290.136" y2="54.9323" gradientUnits="userSpaceOnUse">
<stop offset="0.0668698" stop-color="#B5E3C5"/>
<stop offset="0.501538" stop-color="#B5E3C5" stop-opacity="0"/>
</linearGradient>
</defs>
</svg>
