<svg width="105" height="110" viewBox="0 0 105 110" fill="none" xmlns="http://www.w3.org/2000/svg">
<path d="M47.0781 16.9427C45.0573 17.5989 43.0313 18.3229 40.9896 19.1145C39.5 16.7083 38.3542 11.526 39.6979 3.49475C41.7188 4.03121 43.8438 4.93746 45.9375 6.07288C45.9948 10.2083 46.6667 14.5937 47.0781 16.9427Z" fill="#91D4AF"/>
<path d="M47.0781 16.9427C45.0573 17.5989 43.0313 18.3229 40.9896 19.1145C39.5 16.7083 38.3542 11.526 39.6979 3.49475C41.7188 4.03121 43.8438 4.93746 45.9375 6.07288C45.9948 10.2083 46.6667 14.5937 47.0781 16.9427Z" fill="url(#paint0_linear_1007_12153)"/>
<path d="M47.0781 16.9427C45.0573 17.5989 43.0313 18.3229 40.9896 19.1145C39.5 16.7083 38.3542 11.526 39.6979 3.49475C41.7188 4.03121 43.8438 4.93746 45.9375 6.07288C45.9948 10.2083 46.6667 14.5937 47.0781 16.9427Z" fill="url(#paint1_linear_1007_12153)"/>
<path d="M44.5054 72.2917C48.271 78.0678 49.8908 85.2136 48.9897 92.0521C48.0887 98.8907 44.672 105.37 39.5366 109.979C47.5522 110.073 81.521 100.214 81.521 72.2917C85.396 76.5157 87.6929 82.8125 88.3387 88.5105C93.4845 81.6719 94.5366 73.5053 92.9897 66.5417C92.0627 69.7813 91.6252 73.448 89.2606 76.6302C87.8595 71.0157 83.2085 66.625 77.9429 64.2084C77.9689 71.75 75.172 79.3698 70.5939 85.3594C66.0106 91.349 61.5679 95.1094 54.2814 97.0677C55.8543 87.5157 53.1043 76.4948 44.5054 72.2917Z" fill="#91D4AF"/>
<path d="M44.5054 72.2917C48.271 78.0678 49.8908 85.2136 48.9897 92.0521C48.0887 98.8907 44.672 105.37 39.5366 109.979C47.5522 110.073 81.521 100.214 81.521 72.2917C85.396 76.5157 87.6929 82.8125 88.3387 88.5105C93.4845 81.6719 94.5366 73.5053 92.9897 66.5417C92.0627 69.7813 91.6252 73.448 89.2606 76.6302C87.8595 71.0157 83.2085 66.625 77.9429 64.2084C77.9689 71.75 75.172 79.3698 70.5939 85.3594C66.0106 91.349 61.5679 95.1094 54.2814 97.0677C55.8543 87.5157 53.1043 76.4948 44.5054 72.2917Z" fill="url(#paint2_linear_1007_12153)"/>
<path d="M44.5054 72.2917C48.271 78.0678 49.8908 85.2136 48.9897 92.0521C48.0887 98.8907 44.672 105.37 39.5366 109.979C47.5522 110.073 81.521 100.214 81.521 72.2917C85.396 76.5157 87.6929 82.8125 88.3387 88.5105C93.4845 81.6719 94.5366 73.5053 92.9897 66.5417C92.0627 69.7813 91.6252 73.448 89.2606 76.6302C87.8595 71.0157 83.2085 66.625 77.9429 64.2084C77.9689 71.75 75.172 79.3698 70.5939 85.3594C66.0106 91.349 61.5679 95.1094 54.2814 97.0677C55.8543 87.5157 53.1043 76.4948 44.5054 72.2917Z" fill="url(#paint3_linear_1007_12153)"/>
<path d="M62.2032 15.7344C61.1407 15.7448 59.948 15.8385 58.6563 16.0052C57.875 14.5208 56.3073 12.8646 54.974 11.8438C54.5886 13.6927 54.7552 15.1979 55.2032 16.5365C54.6511 16.7656 53.823 16.8021 53.2709 17.0312C51.3698 13.901 51.4584 10.1979 52.0157 6.13021C56.8177 8.01042 60.7344 11.2865 63.0261 15.7292C62.7448 15.7188 62.474 15.7188 62.2032 15.7344ZM36.0625 33.9948C35.849 34.5365 35.599 35.099 35.1302 35.4375C34.6615 35.7708 34.0625 35.8333 33.4896 35.8854C32.0886 36.0104 30.2917 35.6823 28.8907 35.8073C31.3646 33.2813 34.1563 31.0677 37.1771 29.2396C36.9011 30.8854 36.6667 32.4375 36.0625 33.9948ZM105 35.3021C97.3855 24.0104 84.1407 16.7135 70.5209 16.3073C70.6407 16.4479 70.7657 16.5833 70.8907 16.724C70.7709 16.6875 70.6511 16.651 70.5313 16.6146C70.7032 19.1667 70.3907 21.7344 70.3907 21.7344C69.5261 19.0729 67.7605 15.901 67.7605 15.901C64.5677 10.2292 55.948 2.50521 48.4948 0C46.5573 10.4115 49.2761 18.2552 49.2761 18.2552C43.3855 20.0625 37.6459 22.401 32.1094 25.1198C29.7969 26.2604 27.9636 28.1771 26.9219 30.5365C26.2917 31.9583 25.6563 33.3802 25.1094 34.8281C17.6198 38.1615 10.1302 41.4896 2.64066 44.8229C1.40108 45.375 0.010454 46.0833 3.79691e-05 47.6354C-0.00517136 48.5729 0.526079 49.4219 1.33337 49.8958C2.42712 50.5417 3.53129 51.5052 4.81254 51.6406C4.85941 51.7656 4.89066 51.8906 4.95837 52.0052C10.5313 61.3854 15.823 59.1563 17.5417 64.7708C18.1094 66.6406 20.0782 67.4271 22.0261 67.599C23.974 67.7708 25.9271 67.4219 27.8594 67.1354C34.2657 66.1979 40.849 65.974 47.1771 67.3281C53.5105 68.6771 59.599 71.6927 63.9375 76.4948C62.0677 68.1563 53.5209 64.0729 53.5209 64.0729C53.5209 64.0729 57.2813 62.9167 60.2136 63.4531C53.3698 58.4167 34.7761 58.8438 21.8594 61.2917C20.2344 57.1615 13.5938 55.2604 12.8959 50.7083C23.2292 46.4635 42.0469 43.2813 53.1823 44.1875C50.9167 41.401 38.2605 40.2292 38.2605 40.2292C49.2188 37.4427 74.1667 39.3646 82.4011 44.6198C79.6771 35.9115 68.5209 29.5938 68.5209 29.5938C68.5209 29.5938 89.9219 27.8854 105 35.3021Z" fill="#91D4AF"/>
<path d="M62.2032 15.7344C61.1407 15.7448 59.948 15.8385 58.6563 16.0052C57.875 14.5208 56.3073 12.8646 54.974 11.8438C54.5886 13.6927 54.7552 15.1979 55.2032 16.5365C54.6511 16.7656 53.823 16.8021 53.2709 17.0312C51.3698 13.901 51.4584 10.1979 52.0157 6.13021C56.8177 8.01042 60.7344 11.2865 63.0261 15.7292C62.7448 15.7188 62.474 15.7188 62.2032 15.7344ZM36.0625 33.9948C35.849 34.5365 35.599 35.099 35.1302 35.4375C34.6615 35.7708 34.0625 35.8333 33.4896 35.8854C32.0886 36.0104 30.2917 35.6823 28.8907 35.8073C31.3646 33.2813 34.1563 31.0677 37.1771 29.2396C36.9011 30.8854 36.6667 32.4375 36.0625 33.9948ZM105 35.3021C97.3855 24.0104 84.1407 16.7135 70.5209 16.3073C70.6407 16.4479 70.7657 16.5833 70.8907 16.724C70.7709 16.6875 70.6511 16.651 70.5313 16.6146C70.7032 19.1667 70.3907 21.7344 70.3907 21.7344C69.5261 19.0729 67.7605 15.901 67.7605 15.901C64.5677 10.2292 55.948 2.50521 48.4948 0C46.5573 10.4115 49.2761 18.2552 49.2761 18.2552C43.3855 20.0625 37.6459 22.401 32.1094 25.1198C29.7969 26.2604 27.9636 28.1771 26.9219 30.5365C26.2917 31.9583 25.6563 33.3802 25.1094 34.8281C17.6198 38.1615 10.1302 41.4896 2.64066 44.8229C1.40108 45.375 0.010454 46.0833 3.79691e-05 47.6354C-0.00517136 48.5729 0.526079 49.4219 1.33337 49.8958C2.42712 50.5417 3.53129 51.5052 4.81254 51.6406C4.85941 51.7656 4.89066 51.8906 4.95837 52.0052C10.5313 61.3854 15.823 59.1563 17.5417 64.7708C18.1094 66.6406 20.0782 67.4271 22.0261 67.599C23.974 67.7708 25.9271 67.4219 27.8594 67.1354C34.2657 66.1979 40.849 65.974 47.1771 67.3281C53.5105 68.6771 59.599 71.6927 63.9375 76.4948C62.0677 68.1563 53.5209 64.0729 53.5209 64.0729C53.5209 64.0729 57.2813 62.9167 60.2136 63.4531C53.3698 58.4167 34.7761 58.8438 21.8594 61.2917C20.2344 57.1615 13.5938 55.2604 12.8959 50.7083C23.2292 46.4635 42.0469 43.2813 53.1823 44.1875C50.9167 41.401 38.2605 40.2292 38.2605 40.2292C49.2188 37.4427 74.1667 39.3646 82.4011 44.6198C79.6771 35.9115 68.5209 29.5938 68.5209 29.5938C68.5209 29.5938 89.9219 27.8854 105 35.3021Z" fill="url(#paint4_linear_1007_12153)"/>
<path d="M62.2032 15.7344C61.1407 15.7448 59.948 15.8385 58.6563 16.0052C57.875 14.5208 56.3073 12.8646 54.974 11.8438C54.5886 13.6927 54.7552 15.1979 55.2032 16.5365C54.6511 16.7656 53.823 16.8021 53.2709 17.0312C51.3698 13.901 51.4584 10.1979 52.0157 6.13021C56.8177 8.01042 60.7344 11.2865 63.0261 15.7292C62.7448 15.7188 62.474 15.7188 62.2032 15.7344ZM36.0625 33.9948C35.849 34.5365 35.599 35.099 35.1302 35.4375C34.6615 35.7708 34.0625 35.8333 33.4896 35.8854C32.0886 36.0104 30.2917 35.6823 28.8907 35.8073C31.3646 33.2813 34.1563 31.0677 37.1771 29.2396C36.9011 30.8854 36.6667 32.4375 36.0625 33.9948ZM105 35.3021C97.3855 24.0104 84.1407 16.7135 70.5209 16.3073C70.6407 16.4479 70.7657 16.5833 70.8907 16.724C70.7709 16.6875 70.6511 16.651 70.5313 16.6146C70.7032 19.1667 70.3907 21.7344 70.3907 21.7344C69.5261 19.0729 67.7605 15.901 67.7605 15.901C64.5677 10.2292 55.948 2.50521 48.4948 0C46.5573 10.4115 49.2761 18.2552 49.2761 18.2552C43.3855 20.0625 37.6459 22.401 32.1094 25.1198C29.7969 26.2604 27.9636 28.1771 26.9219 30.5365C26.2917 31.9583 25.6563 33.3802 25.1094 34.8281C17.6198 38.1615 10.1302 41.4896 2.64066 44.8229C1.40108 45.375 0.010454 46.0833 3.79691e-05 47.6354C-0.00517136 48.5729 0.526079 49.4219 1.33337 49.8958C2.42712 50.5417 3.53129 51.5052 4.81254 51.6406C4.85941 51.7656 4.89066 51.8906 4.95837 52.0052C10.5313 61.3854 15.823 59.1563 17.5417 64.7708C18.1094 66.6406 20.0782 67.4271 22.0261 67.599C23.974 67.7708 25.9271 67.4219 27.8594 67.1354C34.2657 66.1979 40.849 65.974 47.1771 67.3281C53.5105 68.6771 59.599 71.6927 63.9375 76.4948C62.0677 68.1563 53.5209 64.0729 53.5209 64.0729C53.5209 64.0729 57.2813 62.9167 60.2136 63.4531C53.3698 58.4167 34.7761 58.8438 21.8594 61.2917C20.2344 57.1615 13.5938 55.2604 12.8959 50.7083C23.2292 46.4635 42.0469 43.2813 53.1823 44.1875C50.9167 41.401 38.2605 40.2292 38.2605 40.2292C49.2188 37.4427 74.1667 39.3646 82.4011 44.6198C79.6771 35.9115 68.5209 29.5938 68.5209 29.5938C68.5209 29.5938 89.9219 27.8854 105 35.3021Z" fill="url(#paint5_linear_1007_12153)"/>
<defs>
<linearGradient id="paint0_linear_1007_12153" x1="-0.202393" y1="55" x2="99.2976" y2="55" gradientUnits="userSpaceOnUse">
<stop offset="0.211501" stop-color="#B5E3C5"/>
<stop offset="0.95315" stop-color="#B5E3C5" stop-opacity="0"/>
</linearGradient>
<linearGradient id="paint1_linear_1007_12153" x1="104.798" y1="55" x2="-0.202394" y2="55" gradientUnits="userSpaceOnUse">
<stop offset="0.0220109" stop-color="#002233"/>
<stop offset="0.90425" stop-color="#002233" stop-opacity="0"/>
</linearGradient>
<linearGradient id="paint2_linear_1007_12153" x1="-0.202393" y1="55" x2="99.2976" y2="55" gradientUnits="userSpaceOnUse">
<stop offset="0.211501" stop-color="#B5E3C5"/>
<stop offset="0.95315" stop-color="#B5E3C5" stop-opacity="0"/>
</linearGradient>
<linearGradient id="paint3_linear_1007_12153" x1="104.798" y1="55" x2="-0.202394" y2="55" gradientUnits="userSpaceOnUse">
<stop offset="0.0220109" stop-color="#002233"/>
<stop offset="0.90425" stop-color="#002233" stop-opacity="0"/>
</linearGradient>
<linearGradient id="paint4_linear_1007_12153" x1="-0.202393" y1="55" x2="99.2976" y2="55" gradientUnits="userSpaceOnUse">
<stop offset="0.211501" stop-color="#B5E3C5"/>
<stop offset="0.95315" stop-color="#B5E3C5" stop-opacity="0"/>
</linearGradient>
<linearGradient id="paint5_linear_1007_12153" x1="104.798" y1="55" x2="-0.202394" y2="55" gradientUnits="userSpaceOnUse">
<stop offset="0.0220109" stop-color="#002233"/>
<stop offset="0.90425" stop-color="#002233" stop-opacity="0"/>
</linearGradient>
</defs>
</svg>
