<svg width="105" height="111" viewBox="0 0 105 111" fill="none" xmlns="http://www.w3.org/2000/svg">
<path d="M47.0781 17.9225C45.0573 18.5788 43.0313 19.3027 40.9896 20.0944C39.5 17.6882 38.3542 12.5059 39.6979 4.47461C41.7188 5.01107 43.8438 5.91732 45.9375 7.05273C45.9948 11.1882 46.6667 15.5736 47.0781 17.9225Z" fill="#91D4AF"/>
<path d="M47.0781 17.9225C45.0573 18.5788 43.0313 19.3027 40.9896 20.0944C39.5 17.6882 38.3542 12.5059 39.6979 4.47461C41.7188 5.01107 43.8438 5.91732 45.9375 7.05273C45.9948 11.1882 46.6667 15.5736 47.0781 17.9225Z" fill="url(#paint0_linear_1007_12152)"/>
<path d="M47.0781 17.9225C45.0573 18.5788 43.0313 19.3027 40.9896 20.0944C39.5 17.6882 38.3542 12.5059 39.6979 4.47461C41.7188 5.01107 43.8438 5.91732 45.9375 7.05273C45.9948 11.1882 46.6667 15.5736 47.0781 17.9225Z" fill="url(#paint1_linear_1007_12152)"/>
<path d="M44.5054 73.2716C48.271 79.0476 49.8908 86.1934 48.9897 93.032C48.0887 99.8705 44.672 106.35 39.5366 110.959C47.5522 111.053 81.521 101.193 81.521 73.2716C85.396 77.4955 87.6929 83.7924 88.3387 89.4903C93.4845 82.6518 94.5366 74.4851 92.9897 67.5216C92.0627 70.7612 91.6252 74.4278 89.2606 77.6101C87.8595 71.9955 83.2085 67.6049 77.9429 65.1882C77.9689 72.7299 75.172 80.3497 70.5939 86.3393C66.0106 92.3289 61.5679 96.0893 54.2814 98.0476C55.8543 88.4955 53.1043 77.4747 44.5054 73.2716Z" fill="#91D4AF"/>
<path d="M44.5054 73.2716C48.271 79.0476 49.8908 86.1934 48.9897 93.032C48.0887 99.8705 44.672 106.35 39.5366 110.959C47.5522 111.053 81.521 101.193 81.521 73.2716C85.396 77.4955 87.6929 83.7924 88.3387 89.4903C93.4845 82.6518 94.5366 74.4851 92.9897 67.5216C92.0627 70.7612 91.6252 74.4278 89.2606 77.6101C87.8595 71.9955 83.2085 67.6049 77.9429 65.1882C77.9689 72.7299 75.172 80.3497 70.5939 86.3393C66.0106 92.3289 61.5679 96.0893 54.2814 98.0476C55.8543 88.4955 53.1043 77.4747 44.5054 73.2716Z" fill="url(#paint2_linear_1007_12152)"/>
<path d="M44.5054 73.2716C48.271 79.0476 49.8908 86.1934 48.9897 93.032C48.0887 99.8705 44.672 106.35 39.5366 110.959C47.5522 111.053 81.521 101.193 81.521 73.2716C85.396 77.4955 87.6929 83.7924 88.3387 89.4903C93.4845 82.6518 94.5366 74.4851 92.9897 67.5216C92.0627 70.7612 91.6252 74.4278 89.2606 77.6101C87.8595 71.9955 83.2085 67.6049 77.9429 65.1882C77.9689 72.7299 75.172 80.3497 70.5939 86.3393C66.0106 92.3289 61.5679 96.0893 54.2814 98.0476C55.8543 88.4955 53.1043 77.4747 44.5054 73.2716Z" fill="url(#paint3_linear_1007_12152)"/>
<path d="M62.2032 16.7142C61.1407 16.7247 59.948 16.8184 58.6563 16.9851C57.875 15.5007 56.3073 13.8444 54.974 12.8236C54.5886 14.6726 54.7552 16.1778 55.2032 17.5163C54.6511 17.7455 53.823 17.7819 53.2709 18.0111C51.3698 14.8809 51.4584 11.1778 52.0157 7.11007C56.8177 8.99027 60.7344 12.2663 63.0261 16.709C62.7448 16.6986 62.474 16.6986 62.2032 16.7142ZM36.0625 34.9747C35.849 35.5163 35.599 36.0788 35.1302 36.4174C34.6615 36.7507 34.0625 36.8132 33.4896 36.8653C32.0886 36.9903 30.2917 36.6622 28.8907 36.7872C31.3646 34.2611 34.1563 32.0476 37.1771 30.2194C36.9011 31.8653 36.6667 33.4174 36.0625 34.9747ZM105 36.2819C97.3855 24.9903 84.1407 17.6934 70.5209 17.2872C70.6407 17.4278 70.7657 17.5632 70.8907 17.7038C70.7709 17.6674 70.6511 17.6309 70.5313 17.5944C70.7032 20.1465 70.3907 22.7142 70.3907 22.7142C69.5261 20.0528 67.7605 16.8809 67.7605 16.8809C64.5677 11.209 55.948 3.48507 48.4948 0.979858C46.5573 11.3913 49.2761 19.2351 49.2761 19.2351C43.3855 21.0424 37.6459 23.3809 32.1094 26.0997C29.7969 27.2403 27.9636 29.1569 26.9219 31.5163C26.2917 32.9382 25.6563 34.3601 25.1094 35.808C17.6198 39.1413 10.1302 42.4694 2.64066 45.8028C1.40108 46.3549 0.010454 47.0632 3.79691e-05 48.6153C-0.00517136 49.5528 0.526079 50.4017 1.33337 50.8757C2.42712 51.5215 3.53129 52.4851 4.81254 52.6205C4.85941 52.7455 4.89066 52.8705 4.95837 52.9851C10.5313 62.3653 15.823 60.1361 17.5417 65.7507C18.1094 67.6205 20.0782 68.4069 22.0261 68.5788C23.974 68.7507 25.9271 68.4017 27.8594 68.1153C34.2657 67.1778 40.849 66.9538 47.1771 68.308C53.5105 69.6569 59.599 72.6726 63.9375 77.4747C62.0677 69.1361 53.5209 65.0528 53.5209 65.0528C53.5209 65.0528 57.2813 63.8965 60.2136 64.433C53.3698 59.3965 34.7761 59.8236 21.8594 62.2715C20.2344 58.1413 13.5938 56.2403 12.8959 51.6882C23.2292 47.4434 42.0469 44.2611 53.1823 45.1674C50.9167 42.3809 38.2605 41.209 38.2605 41.209C49.2188 38.4226 74.1667 40.3444 82.4011 45.5997C79.6771 36.8913 68.5209 30.5736 68.5209 30.5736C68.5209 30.5736 89.9219 28.8653 105 36.2819Z" fill="#91D4AF"/>
<path d="M62.2032 16.7142C61.1407 16.7247 59.948 16.8184 58.6563 16.9851C57.875 15.5007 56.3073 13.8444 54.974 12.8236C54.5886 14.6726 54.7552 16.1778 55.2032 17.5163C54.6511 17.7455 53.823 17.7819 53.2709 18.0111C51.3698 14.8809 51.4584 11.1778 52.0157 7.11007C56.8177 8.99027 60.7344 12.2663 63.0261 16.709C62.7448 16.6986 62.474 16.6986 62.2032 16.7142ZM36.0625 34.9747C35.849 35.5163 35.599 36.0788 35.1302 36.4174C34.6615 36.7507 34.0625 36.8132 33.4896 36.8653C32.0886 36.9903 30.2917 36.6622 28.8907 36.7872C31.3646 34.2611 34.1563 32.0476 37.1771 30.2194C36.9011 31.8653 36.6667 33.4174 36.0625 34.9747ZM105 36.2819C97.3855 24.9903 84.1407 17.6934 70.5209 17.2872C70.6407 17.4278 70.7657 17.5632 70.8907 17.7038C70.7709 17.6674 70.6511 17.6309 70.5313 17.5944C70.7032 20.1465 70.3907 22.7142 70.3907 22.7142C69.5261 20.0528 67.7605 16.8809 67.7605 16.8809C64.5677 11.209 55.948 3.48507 48.4948 0.979858C46.5573 11.3913 49.2761 19.2351 49.2761 19.2351C43.3855 21.0424 37.6459 23.3809 32.1094 26.0997C29.7969 27.2403 27.9636 29.1569 26.9219 31.5163C26.2917 32.9382 25.6563 34.3601 25.1094 35.808C17.6198 39.1413 10.1302 42.4694 2.64066 45.8028C1.40108 46.3549 0.010454 47.0632 3.79691e-05 48.6153C-0.00517136 49.5528 0.526079 50.4017 1.33337 50.8757C2.42712 51.5215 3.53129 52.4851 4.81254 52.6205C4.85941 52.7455 4.89066 52.8705 4.95837 52.9851C10.5313 62.3653 15.823 60.1361 17.5417 65.7507C18.1094 67.6205 20.0782 68.4069 22.0261 68.5788C23.974 68.7507 25.9271 68.4017 27.8594 68.1153C34.2657 67.1778 40.849 66.9538 47.1771 68.308C53.5105 69.6569 59.599 72.6726 63.9375 77.4747C62.0677 69.1361 53.5209 65.0528 53.5209 65.0528C53.5209 65.0528 57.2813 63.8965 60.2136 64.433C53.3698 59.3965 34.7761 59.8236 21.8594 62.2715C20.2344 58.1413 13.5938 56.2403 12.8959 51.6882C23.2292 47.4434 42.0469 44.2611 53.1823 45.1674C50.9167 42.3809 38.2605 41.209 38.2605 41.209C49.2188 38.4226 74.1667 40.3444 82.4011 45.5997C79.6771 36.8913 68.5209 30.5736 68.5209 30.5736C68.5209 30.5736 89.9219 28.8653 105 36.2819Z" fill="url(#paint4_linear_1007_12152)"/>
<path d="M62.2032 16.7142C61.1407 16.7247 59.948 16.8184 58.6563 16.9851C57.875 15.5007 56.3073 13.8444 54.974 12.8236C54.5886 14.6726 54.7552 16.1778 55.2032 17.5163C54.6511 17.7455 53.823 17.7819 53.2709 18.0111C51.3698 14.8809 51.4584 11.1778 52.0157 7.11007C56.8177 8.99027 60.7344 12.2663 63.0261 16.709C62.7448 16.6986 62.474 16.6986 62.2032 16.7142ZM36.0625 34.9747C35.849 35.5163 35.599 36.0788 35.1302 36.4174C34.6615 36.7507 34.0625 36.8132 33.4896 36.8653C32.0886 36.9903 30.2917 36.6622 28.8907 36.7872C31.3646 34.2611 34.1563 32.0476 37.1771 30.2194C36.9011 31.8653 36.6667 33.4174 36.0625 34.9747ZM105 36.2819C97.3855 24.9903 84.1407 17.6934 70.5209 17.2872C70.6407 17.4278 70.7657 17.5632 70.8907 17.7038C70.7709 17.6674 70.6511 17.6309 70.5313 17.5944C70.7032 20.1465 70.3907 22.7142 70.3907 22.7142C69.5261 20.0528 67.7605 16.8809 67.7605 16.8809C64.5677 11.209 55.948 3.48507 48.4948 0.979858C46.5573 11.3913 49.2761 19.2351 49.2761 19.2351C43.3855 21.0424 37.6459 23.3809 32.1094 26.0997C29.7969 27.2403 27.9636 29.1569 26.9219 31.5163C26.2917 32.9382 25.6563 34.3601 25.1094 35.808C17.6198 39.1413 10.1302 42.4694 2.64066 45.8028C1.40108 46.3549 0.010454 47.0632 3.79691e-05 48.6153C-0.00517136 49.5528 0.526079 50.4017 1.33337 50.8757C2.42712 51.5215 3.53129 52.4851 4.81254 52.6205C4.85941 52.7455 4.89066 52.8705 4.95837 52.9851C10.5313 62.3653 15.823 60.1361 17.5417 65.7507C18.1094 67.6205 20.0782 68.4069 22.0261 68.5788C23.974 68.7507 25.9271 68.4017 27.8594 68.1153C34.2657 67.1778 40.849 66.9538 47.1771 68.308C53.5105 69.6569 59.599 72.6726 63.9375 77.4747C62.0677 69.1361 53.5209 65.0528 53.5209 65.0528C53.5209 65.0528 57.2813 63.8965 60.2136 64.433C53.3698 59.3965 34.7761 59.8236 21.8594 62.2715C20.2344 58.1413 13.5938 56.2403 12.8959 51.6882C23.2292 47.4434 42.0469 44.2611 53.1823 45.1674C50.9167 42.3809 38.2605 41.209 38.2605 41.209C49.2188 38.4226 74.1667 40.3444 82.4011 45.5997C79.6771 36.8913 68.5209 30.5736 68.5209 30.5736C68.5209 30.5736 89.9219 28.8653 105 36.2819Z" fill="url(#paint5_linear_1007_12152)"/>
<defs>
<linearGradient id="paint0_linear_1007_12152" x1="-0.202393" y1="55.9799" x2="99.2976" y2="55.9799" gradientUnits="userSpaceOnUse">
<stop offset="0.211501" stop-color="#002233"/>
<stop offset="0.95315" stop-color="#002233" stop-opacity="0"/>
</linearGradient>
<linearGradient id="paint1_linear_1007_12152" x1="104.798" y1="55.9798" x2="-0.202394" y2="55.9799" gradientUnits="userSpaceOnUse">
<stop offset="0.0220109" stop-color="#B5E3C5"/>
<stop offset="0.984375" stop-color="#B5E3C5" stop-opacity="0"/>
</linearGradient>
<linearGradient id="paint2_linear_1007_12152" x1="-0.202393" y1="55.9799" x2="99.2976" y2="55.9799" gradientUnits="userSpaceOnUse">
<stop offset="0.211501" stop-color="#002233"/>
<stop offset="0.95315" stop-color="#002233" stop-opacity="0"/>
</linearGradient>
<linearGradient id="paint3_linear_1007_12152" x1="104.798" y1="55.9798" x2="-0.202394" y2="55.9799" gradientUnits="userSpaceOnUse">
<stop offset="0.0220109" stop-color="#B5E3C5"/>
<stop offset="0.984375" stop-color="#B5E3C5" stop-opacity="0"/>
</linearGradient>
<linearGradient id="paint4_linear_1007_12152" x1="-0.202393" y1="55.9799" x2="99.2976" y2="55.9799" gradientUnits="userSpaceOnUse">
<stop offset="0.211501" stop-color="#002233"/>
<stop offset="0.95315" stop-color="#002233" stop-opacity="0"/>
</linearGradient>
<linearGradient id="paint5_linear_1007_12152" x1="104.798" y1="55.9798" x2="-0.202394" y2="55.9799" gradientUnits="userSpaceOnUse">
<stop offset="0.0220109" stop-color="#B5E3C5"/>
<stop offset="0.984375" stop-color="#B5E3C5" stop-opacity="0"/>
</linearGradient>
</defs>
</svg>
